<mxfile host="app.diagrams.net" agent="Mozilla/5.0 (Windows NT 10.0; Win64; x64) AppleWebKit/537.36 (KHTML, like Gecko) Chrome/138.0.0.0 Safari/537.36" version="28.1.0">
  <diagram name="Page-1" id="xx7bQ4H23C5qJWCzcObA">
    <mxGraphModel dx="1968" dy="1083" grid="1" gridSize="10" guides="1" tooltips="1" connect="1" arrows="1" fold="1" page="1" pageScale="1" pageWidth="827" pageHeight="1169" math="0" shadow="0">
      <root>
        <mxCell id="0" />
        <mxCell id="1" parent="0" />
        <mxCell id="9QPMXsnIaiFJWs5hB8Ml-6" value="1" style="swimlane;whiteSpace=wrap;html=1;" parent="1" vertex="1">
          <mxGeometry x="20" y="40" width="4180" height="790" as="geometry" />
        </mxCell>
        <mxCell id="9QPMXsnIaiFJWs5hB8Ml-9" value="&lt;span style=&quot;color: rgb(0, 0, 0); font-family: 默认字体; font-size: 14px; background-color: rgb(248, 249, 250);&quot;&gt;int&amp;nbsp;&lt;/span&gt;&lt;font color=&quot;#c00000&quot; style=&quot;margin: 0px; padding: 0px; font-family: 默认字体; font-size: 14px; background-color: rgb(248, 249, 250);&quot;&gt;cef_register_extension&lt;/font&gt;&lt;span style=&quot;color: rgb(0, 0, 0); font-family: 默认字体; font-size: 14px; background-color: rgb(248, 249, 250);&quot;&gt;(const cef_string_t* extension_name,&lt;/span&gt;&lt;br style=&quot;margin: 0px; padding: 0px; color: rgb(0, 0, 0); font-family: 默认字体; font-size: 14px; background-color: rgb(248, 249, 250);&quot;&gt;&lt;span style=&quot;color: rgb(0, 0, 0); font-family: 默认字体; font-size: 14px; background-color: rgb(248, 249, 250);&quot;&gt;const cef_string_t* javascript_code,&lt;/span&gt;&lt;br style=&quot;margin: 0px; padding: 0px; color: rgb(0, 0, 0); font-family: 默认字体; font-size: 14px; background-color: rgb(248, 249, 250);&quot;&gt;&lt;span style=&quot;color: rgb(0, 0, 0); font-family: 默认字体; font-size: 14px; background-color: rgb(248, 249, 250);&quot;&gt;cef_v8handler_t* handler)&lt;/span&gt;" style="rounded=1;whiteSpace=wrap;html=1;align=left;spacingTop=4;spacing=8;" parent="9QPMXsnIaiFJWs5hB8Ml-6" vertex="1">
          <mxGeometry x="60" y="40" width="450" height="70" as="geometry" />
        </mxCell>
        <mxCell id="9QPMXsnIaiFJWs5hB8Ml-12" value="&lt;span style=&quot;color: rgb(0, 0, 0); font-family: 默认字体; font-size: 14px; text-align: center; background-color: rgb(248, 249, 250);&quot;&gt;int &lt;/span&gt;&lt;span style=&quot;font-family: 默认字体; font-size: 14px; text-align: center; background-color: rgb(248, 249, 250);&quot;&gt;&lt;font style=&quot;color: light-dark(rgb(0, 0, 0), rgb(255, 102, 102));&quot;&gt;CefExecuteProcess&lt;/font&gt;&lt;/span&gt;&lt;span style=&quot;color: rgb(0, 0, 0); font-family: 默认字体; font-size: 14px; text-align: center; background-color: rgb(248, 249, 250);&quot;&gt;(const CefMainArgs&amp;amp; args,&lt;/span&gt;&lt;br style=&quot;margin: 0px; padding: 0px; color: rgb(0, 0, 0); font-family: 默认字体; font-size: 14px; text-align: center; background-color: rgb(248, 249, 250);&quot;&gt;&lt;span style=&quot;color: rgb(0, 0, 0); font-family: 默认字体; font-size: 14px; text-align: center; background-color: rgb(248, 249, 250);&quot;&gt;CefRefPtr&amp;lt;CefApp&amp;gt; application,&lt;/span&gt;&lt;br style=&quot;margin: 0px; padding: 0px; color: rgb(0, 0, 0); font-family: 默认字体; font-size: 14px; text-align: center; background-color: rgb(248, 249, 250);&quot;&gt;&lt;span style=&quot;color: rgb(0, 0, 0); font-family: 默认字体; font-size: 14px; text-align: center; background-color: rgb(248, 249, 250);&quot;&gt;void* windows_sandbox_info)&lt;/span&gt;" style="rounded=1;whiteSpace=wrap;html=1;align=left;spacingTop=4;spacing=8;" parent="9QPMXsnIaiFJWs5hB8Ml-6" vertex="1">
          <mxGeometry x="560" y="50" width="450" height="70" as="geometry" />
        </mxCell>
        <mxCell id="9QPMXsnIaiFJWs5hB8Ml-16" value="&lt;span style=&quot;color: rgb(0, 0, 0); font-family: 默认字体; font-size: 14px; text-align: center; background-color: rgb(248, 249, 250);&quot;&gt;bool &lt;/span&gt;&lt;span style=&quot;font-family: 默认字体; font-size: 14px; text-align: center; background-color: rgb(248, 249, 250); color: rgb(0, 0, 0);&quot;&gt;&lt;font style=&quot;color: light-dark(rgb(0, 0, 0), rgb(255, 102, 102));&quot;&gt;CefInitializ&lt;/font&gt;&lt;/span&gt;&lt;span style=&quot;color: rgb(0, 0, 0); font-family: 默认字体; font-size: 14px; text-align: center; background-color: rgb(248, 249, 250);&quot;&gt;e(const CefMainArgs&amp;amp; args,&lt;/span&gt;&lt;br style=&quot;margin: 0px; padding: 0px; color: rgb(0, 0, 0); font-family: 默认字体; font-size: 14px; text-align: center; background-color: rgb(248, 249, 250);&quot;&gt;&lt;span style=&quot;color: rgb(0, 0, 0); font-family: 默认字体; font-size: 14px; text-align: center; background-color: rgb(248, 249, 250);&quot;&gt;const CefSettings&amp;amp; settings,&lt;/span&gt;&lt;br style=&quot;margin: 0px; padding: 0px; color: rgb(0, 0, 0); font-family: 默认字体; font-size: 14px; text-align: center; background-color: rgb(248, 249, 250);&quot;&gt;&lt;span style=&quot;color: rgb(0, 0, 0); font-family: 默认字体; font-size: 14px; text-align: center; background-color: rgb(248, 249, 250);&quot;&gt;CefRefPtr&amp;lt;CefApp&amp;gt; application,&lt;/span&gt;&lt;br style=&quot;margin: 0px; padding: 0px; color: rgb(0, 0, 0); font-family: 默认字体; font-size: 14px; text-align: center; background-color: rgb(248, 249, 250);&quot;&gt;&lt;span style=&quot;color: rgb(0, 0, 0); font-family: 默认字体; font-size: 14px; text-align: center; background-color: rgb(248, 249, 250);&quot;&gt;void* windows_sandbox_info)&lt;/span&gt;" style="rounded=1;whiteSpace=wrap;html=1;align=left;spacingTop=4;spacing=8;" parent="9QPMXsnIaiFJWs5hB8Ml-6" vertex="1">
          <mxGeometry x="1060" y="40" width="450" height="80" as="geometry" />
        </mxCell>
        <mxCell id="9QPMXsnIaiFJWs5hB8Ml-1" value="&lt;span style=&quot;color: rgb(0, 0, 0); font-family: 默认字体; font-size: 14px; text-wrap-mode: nowrap;&quot;&gt;CefRenderProcessHandler&lt;/span&gt;" style="swimlane;fontStyle=1;align=center;verticalAlign=top;childLayout=stackLayout;horizontal=1;startSize=26;horizontalStack=0;resizeParent=1;resizeParentMax=0;resizeLast=0;collapsible=1;marginBottom=0;whiteSpace=wrap;html=1;fillColor=#60a917;fontColor=#ffffff;strokeColor=#2D7600;" parent="9QPMXsnIaiFJWs5hB8Ml-6" vertex="1">
          <mxGeometry x="560" y="150" width="450" height="196" as="geometry" />
        </mxCell>
        <mxCell id="9QPMXsnIaiFJWs5hB8Ml-2" value="+ field: type" style="text;strokeColor=none;fillColor=none;align=left;verticalAlign=top;spacingLeft=4;spacingRight=4;overflow=hidden;rotatable=0;points=[[0,0.5],[1,0.5]];portConstraint=eastwest;whiteSpace=wrap;html=1;" parent="9QPMXsnIaiFJWs5hB8Ml-1" vertex="1">
          <mxGeometry y="26" width="450" height="22" as="geometry" />
        </mxCell>
        <mxCell id="9QPMXsnIaiFJWs5hB8Ml-3" value="" style="line;strokeWidth=1;fillColor=none;align=left;verticalAlign=middle;spacingTop=-1;spacingLeft=3;spacingRight=3;rotatable=0;labelPosition=right;points=[];portConstraint=eastwest;strokeColor=inherit;" parent="9QPMXsnIaiFJWs5hB8Ml-1" vertex="1">
          <mxGeometry y="48" width="450" height="8" as="geometry" />
        </mxCell>
        <mxCell id="9QPMXsnIaiFJWs5hB8Ml-4" value="&lt;span style=&quot;color: rgb(0, 0, 0); font-family: 默认字体; font-size: 14px; text-wrap-mode: nowrap; background-color: rgb(248, 249, 250);&quot;&gt;+ void OnContextCreated(CefRefPtr&amp;lt;CefBrowser&amp;gt; browser,&lt;/span&gt;&lt;br style=&quot;margin: 0px; padding: 0px; color: rgb(0, 0, 0); font-family: 默认字体; font-size: 14px; text-wrap-mode: nowrap; background-color: rgb(248, 249, 250);&quot;&gt;&lt;span style=&quot;color: rgb(0, 0, 0); font-family: 默认字体; font-size: 14px; text-wrap-mode: nowrap; background-color: rgb(248, 249, 250);&quot;&gt;CefRefPtr&amp;lt;CefFrame&amp;gt; frame,&lt;/span&gt;&lt;br style=&quot;margin: 0px; padding: 0px; color: rgb(0, 0, 0); font-family: 默认字体; font-size: 14px; text-wrap-mode: nowrap; background-color: rgb(248, 249, 250);&quot;&gt;&lt;span style=&quot;color: rgb(0, 0, 0); font-family: 默认字体; font-size: 14px; text-wrap-mode: nowrap; background-color: rgb(248, 249, 250);&quot;&gt;CefRefPtr&amp;lt;CefV8Context&amp;gt; context)&lt;/span&gt;&lt;br style=&quot;margin: 0px; padding: 0px; color: rgb(0, 0, 0); font-family: 默认字体; font-size: 14px; text-wrap-mode: nowrap; background-color: rgb(248, 249, 250);&quot;&gt;&lt;br style=&quot;margin: 0px; padding: 0px; color: rgb(0, 0, 0); font-family: 默认字体; font-size: 14px; text-wrap-mode: nowrap; background-color: rgb(248, 249, 250);&quot;&gt;&lt;span style=&quot;color: rgb(0, 0, 0); font-family: 默认字体; font-size: 14px; text-wrap-mode: nowrap; background-color: rgb(248, 249, 250);&quot;&gt;IMPLEMENT_REFCOUNTING(XXCefRenderProcessHandler)&lt;/span&gt;" style="text;strokeColor=none;fillColor=none;align=left;verticalAlign=top;spacingLeft=4;spacingRight=4;overflow=hidden;rotatable=0;points=[[0,0.5],[1,0.5]];portConstraint=eastwest;whiteSpace=wrap;html=1;" parent="9QPMXsnIaiFJWs5hB8Ml-1" vertex="1">
          <mxGeometry y="56" width="450" height="140" as="geometry" />
        </mxCell>
        <mxCell id="9QPMXsnIaiFJWs5hB8Ml-21" value="&lt;span style=&quot;color: rgb(0, 0, 0); font-family: 默认字体; font-size: 14px; text-wrap-mode: nowrap;&quot;&gt;CefV8Handler&lt;/span&gt;" style="swimlane;fontStyle=1;align=center;verticalAlign=top;childLayout=stackLayout;horizontal=1;startSize=26;horizontalStack=0;resizeParent=1;resizeParentMax=0;resizeLast=0;collapsible=1;marginBottom=0;whiteSpace=wrap;html=1;fillColor=#60a917;fontColor=#ffffff;strokeColor=#2D7600;" parent="9QPMXsnIaiFJWs5hB8Ml-6" vertex="1">
          <mxGeometry x="40" y="150" width="450" height="200" as="geometry" />
        </mxCell>
        <mxCell id="9QPMXsnIaiFJWs5hB8Ml-22" value="+ field: type" style="text;strokeColor=none;fillColor=none;align=left;verticalAlign=top;spacingLeft=4;spacingRight=4;overflow=hidden;rotatable=0;points=[[0,0.5],[1,0.5]];portConstraint=eastwest;whiteSpace=wrap;html=1;" parent="9QPMXsnIaiFJWs5hB8Ml-21" vertex="1">
          <mxGeometry y="26" width="450" height="26" as="geometry" />
        </mxCell>
        <mxCell id="9QPMXsnIaiFJWs5hB8Ml-23" value="" style="line;strokeWidth=1;fillColor=none;align=left;verticalAlign=middle;spacingTop=-1;spacingLeft=3;spacingRight=3;rotatable=0;labelPosition=right;points=[];portConstraint=eastwest;strokeColor=inherit;" parent="9QPMXsnIaiFJWs5hB8Ml-21" vertex="1">
          <mxGeometry y="52" width="450" height="8" as="geometry" />
        </mxCell>
        <mxCell id="9QPMXsnIaiFJWs5hB8Ml-24" value="&lt;span style=&quot;color: rgb(0, 0, 0); font-family: 默认字体; font-size: 14px; text-wrap-mode: nowrap; background-color: rgb(248, 249, 250);&quot;&gt;+ virtual bool Execute(const CefString&amp;amp; name,&lt;/span&gt;&lt;br style=&quot;margin: 0px; padding: 0px; color: rgb(0, 0, 0); font-family: 默认字体; font-size: 14px; text-wrap-mode: nowrap; background-color: rgb(248, 249, 250);&quot;&gt;&lt;span style=&quot;color: rgb(0, 0, 0); font-family: 默认字体; font-size: 14px; text-wrap-mode: nowrap; background-color: rgb(248, 249, 250);&quot;&gt;CefRefPtr&amp;lt;CefV8Value&amp;gt; object,&lt;/span&gt;&lt;br style=&quot;margin: 0px; padding: 0px; color: rgb(0, 0, 0); font-family: 默认字体; font-size: 14px; text-wrap-mode: nowrap; background-color: rgb(248, 249, 250);&quot;&gt;&lt;span style=&quot;color: rgb(0, 0, 0); font-family: 默认字体; font-size: 14px; text-wrap-mode: nowrap; background-color: rgb(248, 249, 250);&quot;&gt;const CefV8ValueList&amp;amp; arguments,&lt;/span&gt;&lt;br style=&quot;margin: 0px; padding: 0px; color: rgb(0, 0, 0); font-family: 默认字体; font-size: 14px; text-wrap-mode: nowrap; background-color: rgb(248, 249, 250);&quot;&gt;&lt;span style=&quot;color: rgb(0, 0, 0); font-family: 默认字体; font-size: 14px; text-wrap-mode: nowrap; background-color: rgb(248, 249, 250);&quot;&gt;CefRefPtr&amp;lt;CefV8Value&amp;gt;&amp;amp; retval,&lt;/span&gt;&lt;br style=&quot;margin: 0px; padding: 0px; color: rgb(0, 0, 0); font-family: 默认字体; font-size: 14px; text-wrap-mode: nowrap; background-color: rgb(248, 249, 250);&quot;&gt;&lt;span style=&quot;color: rgb(0, 0, 0); font-family: 默认字体; font-size: 14px; text-wrap-mode: nowrap; background-color: rgb(248, 249, 250);&quot;&gt;CefString&amp;amp; exception)&lt;/span&gt;&lt;br style=&quot;margin: 0px; padding: 0px; color: rgb(0, 0, 0); font-family: 默认字体; font-size: 14px; text-wrap-mode: nowrap; background-color: rgb(248, 249, 250);&quot;&gt;&lt;br style=&quot;margin: 0px; padding: 0px; color: rgb(0, 0, 0); font-family: 默认字体; font-size: 14px; text-wrap-mode: nowrap; background-color: rgb(248, 249, 250);&quot;&gt;&lt;span style=&quot;color: rgb(0, 0, 0); font-family: 默认字体; font-size: 14px; text-wrap-mode: nowrap; background-color: rgb(248, 249, 250);&quot;&gt;IMPLEMENT_REFCOUNTING(XXCefV8Handler)&lt;/span&gt;" style="text;strokeColor=none;fillColor=none;align=left;verticalAlign=top;spacingLeft=4;spacingRight=4;overflow=hidden;rotatable=0;points=[[0,0.5],[1,0.5]];portConstraint=eastwest;whiteSpace=wrap;html=1;" parent="9QPMXsnIaiFJWs5hB8Ml-21" vertex="1">
          <mxGeometry y="60" width="450" height="140" as="geometry" />
        </mxCell>
        <mxCell id="9QPMXsnIaiFJWs5hB8Ml-25" value="&lt;span style=&quot;color: rgb(0, 0, 0); font-family: 默认字体; font-size: 14px; text-wrap-mode: nowrap;&quot;&gt;CefLoadHandler&lt;/span&gt;" style="swimlane;fontStyle=1;align=center;verticalAlign=top;childLayout=stackLayout;horizontal=1;startSize=26;horizontalStack=0;resizeParent=1;resizeParentMax=0;resizeLast=0;collapsible=1;marginBottom=0;whiteSpace=wrap;html=1;fillColor=#60a917;fontColor=#ffffff;strokeColor=#2D7600;" parent="9QPMXsnIaiFJWs5hB8Ml-6" vertex="1">
          <mxGeometry x="1070" y="170" width="450" height="192" as="geometry" />
        </mxCell>
        <mxCell id="9QPMXsnIaiFJWs5hB8Ml-26" value="+ field: type" style="text;strokeColor=none;fillColor=none;align=left;verticalAlign=top;spacingLeft=4;spacingRight=4;overflow=hidden;rotatable=0;points=[[0,0.5],[1,0.5]];portConstraint=eastwest;whiteSpace=wrap;html=1;" parent="9QPMXsnIaiFJWs5hB8Ml-25" vertex="1">
          <mxGeometry y="26" width="450" height="18" as="geometry" />
        </mxCell>
        <mxCell id="9QPMXsnIaiFJWs5hB8Ml-27" value="" style="line;strokeWidth=1;fillColor=none;align=left;verticalAlign=middle;spacingTop=-1;spacingLeft=3;spacingRight=3;rotatable=0;labelPosition=right;points=[];portConstraint=eastwest;strokeColor=inherit;" parent="9QPMXsnIaiFJWs5hB8Ml-25" vertex="1">
          <mxGeometry y="44" width="450" height="8" as="geometry" />
        </mxCell>
        <mxCell id="9QPMXsnIaiFJWs5hB8Ml-28" value="&lt;span style=&quot;color: rgb(0, 0, 0); font-family: 默认字体; font-size: 14px; text-wrap-mode: nowrap; background-color: rgb(248, 249, 250);&quot;&gt;+&lt;/span&gt;" style="text;strokeColor=none;fillColor=none;align=left;verticalAlign=top;spacingLeft=4;spacingRight=4;overflow=hidden;rotatable=0;points=[[0,0.5],[1,0.5]];portConstraint=eastwest;whiteSpace=wrap;html=1;" parent="9QPMXsnIaiFJWs5hB8Ml-25" vertex="1">
          <mxGeometry y="52" width="450" height="140" as="geometry" />
        </mxCell>
        <mxCell id="9QPMXsnIaiFJWs5hB8Ml-29" value="&lt;span style=&quot;color: rgb(0, 0, 0); font-family: 默认字体; font-size: 14px; text-wrap-mode: nowrap;&quot;&gt;CefApp&lt;/span&gt;" style="swimlane;fontStyle=1;align=center;verticalAlign=top;childLayout=stackLayout;horizontal=1;startSize=26;horizontalStack=0;resizeParent=1;resizeParentMax=0;resizeLast=0;collapsible=1;marginBottom=0;whiteSpace=wrap;html=1;fillColor=#60a917;fontColor=#ffffff;strokeColor=#2D7600;" parent="9QPMXsnIaiFJWs5hB8Ml-6" vertex="1">
          <mxGeometry x="1070" y="450" width="510" height="200" as="geometry" />
        </mxCell>
        <mxCell id="9QPMXsnIaiFJWs5hB8Ml-30" value="+ field: type" style="text;strokeColor=none;fillColor=none;align=left;verticalAlign=top;spacingLeft=4;spacingRight=4;overflow=hidden;rotatable=0;points=[[0,0.5],[1,0.5]];portConstraint=eastwest;whiteSpace=wrap;html=1;" parent="9QPMXsnIaiFJWs5hB8Ml-29" vertex="1">
          <mxGeometry y="26" width="510" height="26" as="geometry" />
        </mxCell>
        <mxCell id="9QPMXsnIaiFJWs5hB8Ml-31" value="" style="line;strokeWidth=1;fillColor=none;align=left;verticalAlign=middle;spacingTop=-1;spacingLeft=3;spacingRight=3;rotatable=0;labelPosition=right;points=[];portConstraint=eastwest;strokeColor=inherit;" parent="9QPMXsnIaiFJWs5hB8Ml-29" vertex="1">
          <mxGeometry y="52" width="510" height="8" as="geometry" />
        </mxCell>
        <mxCell id="9QPMXsnIaiFJWs5hB8Ml-32" value="&lt;span style=&quot;color: rgb(0, 0, 0); font-family: 默认字体; font-size: 14px; text-wrap-mode: nowrap; background-color: rgb(248, 249, 250);&quot;&gt;+ CefRefPtr&amp;lt;CefRenderProcessHandler&amp;gt; GetRenderProcessHandler()&lt;/span&gt;" style="text;strokeColor=none;fillColor=none;align=left;verticalAlign=top;spacingLeft=4;spacingRight=4;overflow=hidden;rotatable=0;points=[[0,0.5],[1,0.5]];portConstraint=eastwest;whiteSpace=wrap;html=1;" parent="9QPMXsnIaiFJWs5hB8Ml-29" vertex="1">
          <mxGeometry y="60" width="510" height="140" as="geometry" />
        </mxCell>
        <mxCell id="9QPMXsnIaiFJWs5hB8Ml-64" value="&lt;span style=&quot;color: rgb(0, 0, 0); font-family: 默认字体; font-size: 14px; text-wrap-mode: nowrap;&quot;&gt;CefBrowser&lt;/span&gt;" style="swimlane;fontStyle=1;align=center;verticalAlign=top;childLayout=stackLayout;horizontal=1;startSize=26;horizontalStack=0;resizeParent=1;resizeParentMax=0;resizeLast=0;collapsible=1;marginBottom=0;whiteSpace=wrap;html=1;fillColor=#60a917;fontColor=#ffffff;strokeColor=#2D7600;" parent="9QPMXsnIaiFJWs5hB8Ml-6" vertex="1">
          <mxGeometry x="1800" y="400" width="510" height="200" as="geometry" />
        </mxCell>
        <mxCell id="9QPMXsnIaiFJWs5hB8Ml-65" value="+ field: type" style="text;strokeColor=none;fillColor=none;align=left;verticalAlign=top;spacingLeft=4;spacingRight=4;overflow=hidden;rotatable=0;points=[[0,0.5],[1,0.5]];portConstraint=eastwest;whiteSpace=wrap;html=1;" parent="9QPMXsnIaiFJWs5hB8Ml-64" vertex="1">
          <mxGeometry y="26" width="510" height="26" as="geometry" />
        </mxCell>
        <mxCell id="9QPMXsnIaiFJWs5hB8Ml-66" value="" style="line;strokeWidth=1;fillColor=none;align=left;verticalAlign=middle;spacingTop=-1;spacingLeft=3;spacingRight=3;rotatable=0;labelPosition=right;points=[];portConstraint=eastwest;strokeColor=inherit;" parent="9QPMXsnIaiFJWs5hB8Ml-64" vertex="1">
          <mxGeometry y="52" width="510" height="8" as="geometry" />
        </mxCell>
        <mxCell id="9QPMXsnIaiFJWs5hB8Ml-67" value="&lt;span style=&quot;color: rgb(0, 0, 0); font-family: 默认字体; font-size: 14px; text-wrap-mode: nowrap; background-color: rgb(248, 249, 250);&quot;&gt;+&amp;nbsp;&lt;/span&gt;" style="text;strokeColor=none;fillColor=none;align=left;verticalAlign=top;spacingLeft=4;spacingRight=4;overflow=hidden;rotatable=0;points=[[0,0.5],[1,0.5]];portConstraint=eastwest;whiteSpace=wrap;html=1;" parent="9QPMXsnIaiFJWs5hB8Ml-64" vertex="1">
          <mxGeometry y="60" width="510" height="140" as="geometry" />
        </mxCell>
        <mxCell id="9QPMXsnIaiFJWs5hB8Ml-68" value="&lt;span style=&quot;color: rgb(0, 0, 0); font-family: 默认字体; font-size: 14px; text-wrap-mode: nowrap;&quot;&gt;CefBrowserHost&lt;/span&gt;" style="swimlane;fontStyle=1;align=center;verticalAlign=top;childLayout=stackLayout;horizontal=1;startSize=26;horizontalStack=0;resizeParent=1;resizeParentMax=0;resizeLast=0;collapsible=1;marginBottom=0;whiteSpace=wrap;html=1;fillColor=#60a917;fontColor=#ffffff;strokeColor=#2D7600;" parent="9QPMXsnIaiFJWs5hB8Ml-6" vertex="1">
          <mxGeometry x="1793" y="120" width="510" height="200" as="geometry" />
        </mxCell>
        <mxCell id="9QPMXsnIaiFJWs5hB8Ml-69" value="+ field: type" style="text;strokeColor=none;fillColor=none;align=left;verticalAlign=top;spacingLeft=4;spacingRight=4;overflow=hidden;rotatable=0;points=[[0,0.5],[1,0.5]];portConstraint=eastwest;whiteSpace=wrap;html=1;" parent="9QPMXsnIaiFJWs5hB8Ml-68" vertex="1">
          <mxGeometry y="26" width="510" height="26" as="geometry" />
        </mxCell>
        <mxCell id="9QPMXsnIaiFJWs5hB8Ml-70" value="" style="line;strokeWidth=1;fillColor=none;align=left;verticalAlign=middle;spacingTop=-1;spacingLeft=3;spacingRight=3;rotatable=0;labelPosition=right;points=[];portConstraint=eastwest;strokeColor=inherit;" parent="9QPMXsnIaiFJWs5hB8Ml-68" vertex="1">
          <mxGeometry y="52" width="510" height="8" as="geometry" />
        </mxCell>
        <mxCell id="9QPMXsnIaiFJWs5hB8Ml-71" value="&lt;span style=&quot;color: rgb(0, 0, 0); font-family: 默认字体; font-size: 14px; text-wrap-mode: nowrap; background-color: rgb(248, 249, 250);&quot;&gt;static bool CreateBrowser(const CefWindowInfo&amp;amp; windowInfo,&lt;/span&gt;&lt;br style=&quot;margin: 0px; padding: 0px; color: rgb(0, 0, 0); font-family: 默认字体; font-size: 14px; text-wrap-mode: nowrap; background-color: rgb(248, 249, 250);&quot;&gt;&lt;span style=&quot;color: rgb(0, 0, 0); font-family: 默认字体; font-size: 14px; text-wrap-mode: nowrap; background-color: rgb(248, 249, 250);&quot;&gt;CefRefPtr&amp;lt;CefClient&amp;gt; client,&lt;/span&gt;&lt;br style=&quot;margin: 0px; padding: 0px; color: rgb(0, 0, 0); font-family: 默认字体; font-size: 14px; text-wrap-mode: nowrap; background-color: rgb(248, 249, 250);&quot;&gt;&lt;span style=&quot;color: rgb(0, 0, 0); font-family: 默认字体; font-size: 14px; text-wrap-mode: nowrap; background-color: rgb(248, 249, 250);&quot;&gt;const CefString&amp;amp; url,&lt;/span&gt;&lt;br style=&quot;margin: 0px; padding: 0px; color: rgb(0, 0, 0); font-family: 默认字体; font-size: 14px; text-wrap-mode: nowrap; background-color: rgb(248, 249, 250);&quot;&gt;&lt;span style=&quot;color: rgb(0, 0, 0); font-family: 默认字体; font-size: 14px; text-wrap-mode: nowrap; background-color: rgb(248, 249, 250);&quot;&gt;const CefBrowserSettings&amp;amp; settings,&lt;/span&gt;&lt;br style=&quot;margin: 0px; padding: 0px; color: rgb(0, 0, 0); font-family: 默认字体; font-size: 14px; text-wrap-mode: nowrap; background-color: rgb(248, 249, 250);&quot;&gt;&lt;span style=&quot;color: rgb(0, 0, 0); font-family: 默认字体; font-size: 14px; text-wrap-mode: nowrap; background-color: rgb(248, 249, 250);&quot;&gt;CefRefPtr&amp;lt;CefDictionaryValue&amp;gt; extra_info,&lt;/span&gt;&lt;br style=&quot;margin: 0px; padding: 0px; color: rgb(0, 0, 0); font-family: 默认字体; font-size: 14px; text-wrap-mode: nowrap; background-color: rgb(248, 249, 250);&quot;&gt;&lt;span style=&quot;color: rgb(0, 0, 0); font-family: 默认字体; font-size: 14px; text-wrap-mode: nowrap; background-color: rgb(248, 249, 250);&quot;&gt;CefRefPtr&amp;lt;CefRequestContext&amp;gt; request_context);&lt;/span&gt;" style="text;strokeColor=none;fillColor=none;align=left;verticalAlign=top;spacingLeft=4;spacingRight=4;overflow=hidden;rotatable=0;points=[[0,0.5],[1,0.5]];portConstraint=eastwest;whiteSpace=wrap;html=1;" parent="9QPMXsnIaiFJWs5hB8Ml-68" vertex="1">
          <mxGeometry y="60" width="510" height="140" as="geometry" />
        </mxCell>
        <mxCell id="9QPMXsnIaiFJWs5hB8Ml-77" value="&lt;span style=&quot;color: rgb(0, 0, 0); font-family: 默认字体; font-size: 14px; text-wrap-mode: nowrap;&quot;&gt;CefFrame&lt;/span&gt;" style="swimlane;fontStyle=1;align=center;verticalAlign=top;childLayout=stackLayout;horizontal=1;startSize=26;horizontalStack=0;resizeParent=1;resizeParentMax=0;resizeLast=0;collapsible=1;marginBottom=0;whiteSpace=wrap;html=1;fillColor=#60a917;fontColor=#ffffff;strokeColor=#2D7600;" parent="9QPMXsnIaiFJWs5hB8Ml-6" vertex="1">
          <mxGeometry x="3380" y="60" width="510" height="174" as="geometry" />
        </mxCell>
        <mxCell id="9QPMXsnIaiFJWs5hB8Ml-79" value="" style="line;strokeWidth=1;fillColor=none;align=left;verticalAlign=middle;spacingTop=-1;spacingLeft=3;spacingRight=3;rotatable=0;labelPosition=right;points=[];portConstraint=eastwest;strokeColor=inherit;" parent="9QPMXsnIaiFJWs5hB8Ml-77" vertex="1">
          <mxGeometry y="26" width="510" height="8" as="geometry" />
        </mxCell>
        <mxCell id="9QPMXsnIaiFJWs5hB8Ml-80" value="&lt;span style=&quot;color: rgb(0, 0, 0); font-family: 默认字体; font-size: 14px; background-color: rgb(248, 249, 250);&quot;&gt;virtual void&amp;nbsp;&lt;/span&gt;&lt;font style=&quot;margin: 0px; padding: 0px; font-family: 默认字体; font-size: 14px; background-color: rgb(248, 249, 250);&quot; color=&quot;#c00000&quot;&gt;ExecuteJavaScript&lt;/font&gt;&lt;span style=&quot;color: rgb(0, 0, 0); font-family: 默认字体; font-size: 14px; background-color: rgb(248, 249, 250);&quot;&gt;(const CefString&amp;amp; code,&lt;/span&gt;&lt;br style=&quot;margin: 0px; padding: 0px; color: rgb(0, 0, 0); font-family: 默认字体; font-size: 14px; background-color: rgb(248, 249, 250);&quot;&gt;&lt;span style=&quot;margin: 0px; padding: 0px; color: rgb(0, 0, 0); font-family: 默认字体; font-size: 14px; background-color: rgb(248, 249, 250); white-space: pre;&quot;&gt; &lt;/span&gt;&lt;span style=&quot;color: rgb(0, 0, 0); font-family: 默认字体; font-size: 14px; background-color: rgb(248, 249, 250);&quot;&gt;const CefString&amp;amp; script_url,&lt;/span&gt;&lt;br style=&quot;margin: 0px; padding: 0px; color: rgb(0, 0, 0); font-family: 默认字体; font-size: 14px; background-color: rgb(248, 249, 250);&quot;&gt;&lt;span style=&quot;margin: 0px; padding: 0px; color: rgb(0, 0, 0); font-family: 默认字体; font-size: 14px; background-color: rgb(248, 249, 250); white-space: pre;&quot;&gt; &lt;/span&gt;&lt;span style=&quot;color: rgb(0, 0, 0); font-family: 默认字体; font-size: 14px; background-color: rgb(248, 249, 250);&quot;&gt;int start_line) = 0&lt;/span&gt;" style="text;strokeColor=none;fillColor=none;align=left;verticalAlign=top;spacingLeft=4;spacingRight=4;overflow=hidden;rotatable=0;points=[[0,0.5],[1,0.5]];portConstraint=eastwest;whiteSpace=wrap;html=1;" parent="9QPMXsnIaiFJWs5hB8Ml-77" vertex="1">
          <mxGeometry y="34" width="510" height="140" as="geometry" />
        </mxCell>
        <mxCell id="9QPMXsnIaiFJWs5hB8Ml-73" value="&lt;span style=&quot;color: rgb(0, 0, 0); font-family: 默认字体; font-size: 14px; text-wrap-mode: nowrap;&quot;&gt;CefV8Context&lt;/span&gt;" style="swimlane;fontStyle=1;align=center;verticalAlign=top;childLayout=stackLayout;horizontal=1;startSize=26;horizontalStack=0;resizeParent=1;resizeParentMax=0;resizeLast=0;collapsible=1;marginBottom=0;whiteSpace=wrap;html=1;fillColor=#60a917;fontColor=#ffffff;strokeColor=#2D7600;" parent="9QPMXsnIaiFJWs5hB8Ml-6" vertex="1">
          <mxGeometry x="2640" y="230" width="510" height="220" as="geometry" />
        </mxCell>
        <mxCell id="9QPMXsnIaiFJWs5hB8Ml-74" value="+ field: type" style="text;strokeColor=none;fillColor=none;align=left;verticalAlign=top;spacingLeft=4;spacingRight=4;overflow=hidden;rotatable=0;points=[[0,0.5],[1,0.5]];portConstraint=eastwest;whiteSpace=wrap;html=1;" parent="9QPMXsnIaiFJWs5hB8Ml-73" vertex="1">
          <mxGeometry y="26" width="510" height="26" as="geometry" />
        </mxCell>
        <mxCell id="9QPMXsnIaiFJWs5hB8Ml-75" value="" style="line;strokeWidth=1;fillColor=none;align=left;verticalAlign=middle;spacingTop=-1;spacingLeft=3;spacingRight=3;rotatable=0;labelPosition=right;points=[];portConstraint=eastwest;strokeColor=inherit;" parent="9QPMXsnIaiFJWs5hB8Ml-73" vertex="1">
          <mxGeometry y="52" width="510" height="8" as="geometry" />
        </mxCell>
        <mxCell id="9QPMXsnIaiFJWs5hB8Ml-76" value="&lt;span style=&quot;color: rgb(0, 0, 0); font-family: 默认字体; font-size: 14px; background-color: rgb(248, 249, 250);&quot;&gt;virtual bool&amp;nbsp;&lt;/span&gt;&lt;font style=&quot;margin: 0px; padding: 0px; font-family: 默认字体; font-size: 14px; background-color: rgb(248, 249, 250);&quot; color=&quot;#c00000&quot;&gt;Eval&lt;/font&gt;&lt;span style=&quot;color: rgb(0, 0, 0); font-family: 默认字体; font-size: 14px; background-color: rgb(248, 249, 250);&quot;&gt;(const CefString&amp;amp; code,&lt;/span&gt;&lt;br style=&quot;margin: 0px; padding: 0px; color: rgb(0, 0, 0); font-family: 默认字体; font-size: 14px; background-color: rgb(248, 249, 250);&quot;&gt;&lt;span style=&quot;color: rgb(0, 0, 0); font-family: 默认字体; font-size: 14px; background-color: rgb(248, 249, 250);&quot;&gt;const CefString&amp;amp; script_url,&lt;/span&gt;&lt;br style=&quot;margin: 0px; padding: 0px; color: rgb(0, 0, 0); font-family: 默认字体; font-size: 14px; background-color: rgb(248, 249, 250);&quot;&gt;&lt;span style=&quot;color: rgb(0, 0, 0); font-family: 默认字体; font-size: 14px; background-color: rgb(248, 249, 250);&quot;&gt;int start_line,&lt;/span&gt;&lt;br style=&quot;margin: 0px; padding: 0px; color: rgb(0, 0, 0); font-family: 默认字体; font-size: 14px; background-color: rgb(248, 249, 250);&quot;&gt;&lt;span style=&quot;color: rgb(0, 0, 0); font-family: 默认字体; font-size: 14px; background-color: rgb(248, 249, 250);&quot;&gt;CefRefPtr&amp;lt;CefV8Value&amp;gt;&amp;amp; retval,&lt;/span&gt;&lt;br style=&quot;margin: 0px; padding: 0px; color: rgb(0, 0, 0); font-family: 默认字体; font-size: 14px; background-color: rgb(248, 249, 250);&quot;&gt;&lt;span style=&quot;color: rgb(0, 0, 0); font-family: 默认字体; font-size: 14px; background-color: rgb(248, 249, 250);&quot;&gt;CefRefPtr&amp;lt;CefV8Exception&amp;gt;&amp;amp; exception) = 0&lt;/span&gt;&lt;p style=&quot;margin: 0px; padding: 0px; color: rgb(0, 0, 0); font-family: 默认字体; font-size: 14px; background-color: rgb(248, 249, 250);&quot;&gt;&lt;/p&gt;&lt;div style=&quot;margin: 0px; padding: 0px; color: rgb(0, 0, 0); font-family: 默认字体; font-size: 14px; background-color: rgb(248, 249, 250);&quot;&gt;virtual CefRefPtr&amp;lt;CefBrowser&amp;gt;&amp;nbsp;&lt;font style=&quot;margin: 0px; padding: 0px;&quot; color=&quot;#ff0000&quot;&gt;GetBrowser&lt;/font&gt;() = 0;&lt;br style=&quot;margin: 0px; padding: 0px;&quot;&gt;virtual CefRefPtr&amp;lt;CefFrame&amp;gt;&amp;nbsp;&lt;font style=&quot;margin: 0px; padding: 0px;&quot; color=&quot;#a38200&quot;&gt;GetFrame&lt;/font&gt;() = 0;&lt;br style=&quot;margin: 0px; padding: 0px;&quot;&gt;virtual CefRefPtr&amp;lt;CefV8Value&amp;gt;&amp;nbsp;&lt;font style=&quot;margin: 0px; padding: 0px;&quot; color=&quot;#a38200&quot;&gt;GetGlobal&lt;/font&gt;() = 0;&lt;/div&gt;" style="text;strokeColor=none;fillColor=none;align=left;verticalAlign=top;spacingLeft=4;spacingRight=4;overflow=hidden;rotatable=0;points=[[0,0.5],[1,0.5]];portConstraint=eastwest;whiteSpace=wrap;html=1;" parent="9QPMXsnIaiFJWs5hB8Ml-73" vertex="1">
          <mxGeometry y="60" width="510" height="160" as="geometry" />
        </mxCell>
        <mxCell id="9QPMXsnIaiFJWs5hB8Ml-81" style="edgeStyle=orthogonalEdgeStyle;rounded=0;orthogonalLoop=1;jettySize=auto;html=1;endArrow=open;endFill=0;" parent="9QPMXsnIaiFJWs5hB8Ml-6" source="9QPMXsnIaiFJWs5hB8Ml-73" target="9QPMXsnIaiFJWs5hB8Ml-77" edge="1">
          <mxGeometry relative="1" as="geometry" />
        </mxCell>
        <mxCell id="9QPMXsnIaiFJWs5hB8Ml-82" style="edgeStyle=orthogonalEdgeStyle;rounded=0;orthogonalLoop=1;jettySize=auto;html=1;" parent="9QPMXsnIaiFJWs5hB8Ml-6" source="9QPMXsnIaiFJWs5hB8Ml-73" target="9QPMXsnIaiFJWs5hB8Ml-64" edge="1">
          <mxGeometry relative="1" as="geometry" />
        </mxCell>
        <mxCell id="9QPMXsnIaiFJWs5hB8Ml-87" style="edgeStyle=orthogonalEdgeStyle;rounded=0;orthogonalLoop=1;jettySize=auto;html=1;exitX=0.5;exitY=0;exitDx=0;exitDy=0;endArrow=block;endFill=1;" parent="9QPMXsnIaiFJWs5hB8Ml-6" source="9QPMXsnIaiFJWs5hB8Ml-83" target="9QPMXsnIaiFJWs5hB8Ml-73" edge="1">
          <mxGeometry relative="1" as="geometry" />
        </mxCell>
        <mxCell id="9QPMXsnIaiFJWs5hB8Ml-83" value="&lt;span style=&quot;color: rgb(0, 0, 0); font-family: 默认字体; font-size: 14px; text-wrap-mode: nowrap;&quot;&gt;CefV8ContextCToCpp&lt;/span&gt;" style="swimlane;fontStyle=1;align=center;verticalAlign=top;childLayout=stackLayout;horizontal=1;startSize=26;horizontalStack=0;resizeParent=1;resizeParentMax=0;resizeLast=0;collapsible=1;marginBottom=0;whiteSpace=wrap;html=1;fillColor=#60a917;fontColor=#ffffff;strokeColor=#2D7600;" parent="9QPMXsnIaiFJWs5hB8Ml-6" vertex="1">
          <mxGeometry x="2650" y="520" width="510" height="200" as="geometry" />
        </mxCell>
        <mxCell id="9QPMXsnIaiFJWs5hB8Ml-84" value="+ field: type" style="text;strokeColor=none;fillColor=none;align=left;verticalAlign=top;spacingLeft=4;spacingRight=4;overflow=hidden;rotatable=0;points=[[0,0.5],[1,0.5]];portConstraint=eastwest;whiteSpace=wrap;html=1;" parent="9QPMXsnIaiFJWs5hB8Ml-83" vertex="1">
          <mxGeometry y="26" width="510" height="26" as="geometry" />
        </mxCell>
        <mxCell id="9QPMXsnIaiFJWs5hB8Ml-85" value="" style="line;strokeWidth=1;fillColor=none;align=left;verticalAlign=middle;spacingTop=-1;spacingLeft=3;spacingRight=3;rotatable=0;labelPosition=right;points=[];portConstraint=eastwest;strokeColor=inherit;" parent="9QPMXsnIaiFJWs5hB8Ml-83" vertex="1">
          <mxGeometry y="52" width="510" height="8" as="geometry" />
        </mxCell>
        <mxCell id="9QPMXsnIaiFJWs5hB8Ml-86" value="&lt;span style=&quot;color: rgb(0, 0, 0); font-family: 默认字体; font-size: 14px; text-wrap-mode: nowrap; background-color: rgb(248, 249, 250);&quot;&gt;+&amp;nbsp;&lt;/span&gt;" style="text;strokeColor=none;fillColor=none;align=left;verticalAlign=top;spacingLeft=4;spacingRight=4;overflow=hidden;rotatable=0;points=[[0,0.5],[1,0.5]];portConstraint=eastwest;whiteSpace=wrap;html=1;" parent="9QPMXsnIaiFJWs5hB8Ml-83" vertex="1">
          <mxGeometry y="60" width="510" height="140" as="geometry" />
        </mxCell>
        <mxCell id="9QPMXsnIaiFJWs5hB8Ml-54" style="edgeStyle=orthogonalEdgeStyle;rounded=0;orthogonalLoop=1;jettySize=auto;html=1;exitX=0.5;exitY=0;exitDx=0;exitDy=0;" parent="1" source="9QPMXsnIaiFJWs5hB8Ml-33" target="9QPMXsnIaiFJWs5hB8Ml-29" edge="1">
          <mxGeometry relative="1" as="geometry" />
        </mxCell>
        <mxCell id="9QPMXsnIaiFJWs5hB8Ml-33" value="&lt;span style=&quot;color: rgb(0, 0, 0); font-family: 默认字体; font-size: 14px; text-wrap-mode: nowrap;&quot;&gt;ClientApp&lt;/span&gt;" style="swimlane;fontStyle=1;align=center;verticalAlign=top;childLayout=stackLayout;horizontal=1;startSize=26;horizontalStack=0;resizeParent=1;resizeParentMax=0;resizeLast=0;collapsible=1;marginBottom=0;whiteSpace=wrap;html=1;fillColor=#1ba1e2;fontColor=#ffffff;strokeColor=#006EAF;" parent="1" vertex="1">
          <mxGeometry x="1100" y="973" width="510" height="196" as="geometry" />
        </mxCell>
        <mxCell id="9QPMXsnIaiFJWs5hB8Ml-34" value="+ field: type" style="text;strokeColor=none;fillColor=none;align=left;verticalAlign=top;spacingLeft=4;spacingRight=4;overflow=hidden;rotatable=0;points=[[0,0.5],[1,0.5]];portConstraint=eastwest;whiteSpace=wrap;html=1;" parent="9QPMXsnIaiFJWs5hB8Ml-33" vertex="1">
          <mxGeometry y="26" width="510" height="22" as="geometry" />
        </mxCell>
        <mxCell id="9QPMXsnIaiFJWs5hB8Ml-35" value="" style="line;strokeWidth=1;fillColor=none;align=left;verticalAlign=middle;spacingTop=-1;spacingLeft=3;spacingRight=3;rotatable=0;labelPosition=right;points=[];portConstraint=eastwest;strokeColor=inherit;" parent="9QPMXsnIaiFJWs5hB8Ml-33" vertex="1">
          <mxGeometry y="48" width="510" height="8" as="geometry" />
        </mxCell>
        <mxCell id="9QPMXsnIaiFJWs5hB8Ml-36" value="&lt;span style=&quot;color: rgb(0, 0, 0); font-family: 默认字体; font-size: 14px; text-wrap-mode: nowrap; background-color: rgb(248, 249, 250);&quot;&gt;+ CefRefPtr&amp;lt;CefRenderProcessHandler&amp;gt; GetRenderProcessHandler()&lt;/span&gt;" style="text;strokeColor=none;fillColor=none;align=left;verticalAlign=top;spacingLeft=4;spacingRight=4;overflow=hidden;rotatable=0;points=[[0,0.5],[1,0.5]];portConstraint=eastwest;whiteSpace=wrap;html=1;" parent="9QPMXsnIaiFJWs5hB8Ml-33" vertex="1">
          <mxGeometry y="56" width="510" height="140" as="geometry" />
        </mxCell>
        <mxCell id="9QPMXsnIaiFJWs5hB8Ml-51" style="edgeStyle=orthogonalEdgeStyle;rounded=0;orthogonalLoop=1;jettySize=auto;html=1;exitX=0.5;exitY=0;exitDx=0;exitDy=0;endArrow=block;endFill=0;" parent="1" source="9QPMXsnIaiFJWs5hB8Ml-37" target="9QPMXsnIaiFJWs5hB8Ml-33" edge="1">
          <mxGeometry relative="1" as="geometry">
            <mxPoint x="830" y="1190" as="targetPoint" />
          </mxGeometry>
        </mxCell>
        <mxCell id="9QPMXsnIaiFJWs5hB8Ml-56" style="edgeStyle=orthogonalEdgeStyle;rounded=0;orthogonalLoop=1;jettySize=auto;html=1;exitX=0.25;exitY=0;exitDx=0;exitDy=0;" parent="1" source="9QPMXsnIaiFJWs5hB8Ml-37" target="9QPMXsnIaiFJWs5hB8Ml-1" edge="1">
          <mxGeometry relative="1" as="geometry">
            <Array as="points">
              <mxPoint x="158" y="540" />
              <mxPoint x="815" y="540" />
            </Array>
          </mxGeometry>
        </mxCell>
        <mxCell id="9QPMXsnIaiFJWs5hB8Ml-57" style="edgeStyle=orthogonalEdgeStyle;rounded=0;orthogonalLoop=1;jettySize=auto;html=1;exitX=0.25;exitY=0;exitDx=0;exitDy=0;" parent="1" source="9QPMXsnIaiFJWs5hB8Ml-37" target="9QPMXsnIaiFJWs5hB8Ml-25" edge="1">
          <mxGeometry relative="1" as="geometry">
            <Array as="points">
              <mxPoint x="158" y="570" />
              <mxPoint x="1325" y="570" />
            </Array>
          </mxGeometry>
        </mxCell>
        <mxCell id="9QPMXsnIaiFJWs5hB8Ml-37" value="&lt;span style=&quot;font-family: 默认字体; font-size: 14px; text-wrap-mode: nowrap;&quot;&gt;&lt;font style=&quot;color: light-dark(rgb(237, 237, 237), rgb(255, 255, 255));&quot;&gt;ClientAppRenderer&lt;/font&gt;&lt;/span&gt;" style="swimlane;fontStyle=1;align=center;verticalAlign=top;childLayout=stackLayout;horizontal=1;startSize=26;horizontalStack=0;resizeParent=1;resizeParentMax=0;resizeLast=0;collapsible=1;marginBottom=0;whiteSpace=wrap;html=1;fillColor=#1ba1e2;fontColor=#ffffff;strokeColor=#006EAF;" parent="1" vertex="1">
          <mxGeometry x="30" y="1300" width="510" height="200" as="geometry" />
        </mxCell>
        <mxCell id="9QPMXsnIaiFJWs5hB8Ml-38" value="+ field: type" style="text;strokeColor=none;fillColor=none;align=left;verticalAlign=top;spacingLeft=4;spacingRight=4;overflow=hidden;rotatable=0;points=[[0,0.5],[1,0.5]];portConstraint=eastwest;whiteSpace=wrap;html=1;" parent="9QPMXsnIaiFJWs5hB8Ml-37" vertex="1">
          <mxGeometry y="26" width="510" height="26" as="geometry" />
        </mxCell>
        <mxCell id="9QPMXsnIaiFJWs5hB8Ml-39" value="" style="line;strokeWidth=1;fillColor=none;align=left;verticalAlign=middle;spacingTop=-1;spacingLeft=3;spacingRight=3;rotatable=0;labelPosition=right;points=[];portConstraint=eastwest;strokeColor=inherit;" parent="9QPMXsnIaiFJWs5hB8Ml-37" vertex="1">
          <mxGeometry y="52" width="510" height="8" as="geometry" />
        </mxCell>
        <mxCell id="9QPMXsnIaiFJWs5hB8Ml-40" value="&lt;span style=&quot;color: rgb(0, 0, 0); font-family: 默认字体; font-size: 14px; text-wrap-mode: nowrap; background-color: rgb(248, 249, 250);&quot;&gt;+ CefRefPtr&amp;lt;CefRenderProcessHandler&amp;gt; GetRenderProcessHandler()&lt;/span&gt;" style="text;strokeColor=none;fillColor=none;align=left;verticalAlign=top;spacingLeft=4;spacingRight=4;overflow=hidden;rotatable=0;points=[[0,0.5],[1,0.5]];portConstraint=eastwest;whiteSpace=wrap;html=1;" parent="9QPMXsnIaiFJWs5hB8Ml-37" vertex="1">
          <mxGeometry y="60" width="510" height="140" as="geometry" />
        </mxCell>
        <mxCell id="9QPMXsnIaiFJWs5hB8Ml-52" style="edgeStyle=orthogonalEdgeStyle;rounded=0;orthogonalLoop=1;jettySize=auto;html=1;exitX=0.5;exitY=0;exitDx=0;exitDy=0;endArrow=block;endFill=0;" parent="1" source="9QPMXsnIaiFJWs5hB8Ml-42" target="9QPMXsnIaiFJWs5hB8Ml-33" edge="1">
          <mxGeometry relative="1" as="geometry" />
        </mxCell>
        <mxCell id="9QPMXsnIaiFJWs5hB8Ml-42" value="&lt;span style=&quot;color: rgb(0, 0, 0); font-family: 默认字体; font-size: 14px; text-wrap-mode: nowrap;&quot;&gt;ClientAppBrowser&lt;/span&gt;" style="swimlane;fontStyle=1;align=center;verticalAlign=top;childLayout=stackLayout;horizontal=1;startSize=26;horizontalStack=0;resizeParent=1;resizeParentMax=0;resizeLast=0;collapsible=1;marginBottom=0;whiteSpace=wrap;html=1;fillColor=#1ba1e2;fontColor=#ffffff;strokeColor=#006EAF;" parent="1" vertex="1">
          <mxGeometry x="590" y="1300" width="510" height="200" as="geometry" />
        </mxCell>
        <mxCell id="9QPMXsnIaiFJWs5hB8Ml-43" value="+ field: type" style="text;strokeColor=none;fillColor=none;align=left;verticalAlign=top;spacingLeft=4;spacingRight=4;overflow=hidden;rotatable=0;points=[[0,0.5],[1,0.5]];portConstraint=eastwest;whiteSpace=wrap;html=1;" parent="9QPMXsnIaiFJWs5hB8Ml-42" vertex="1">
          <mxGeometry y="26" width="510" height="26" as="geometry" />
        </mxCell>
        <mxCell id="9QPMXsnIaiFJWs5hB8Ml-44" value="" style="line;strokeWidth=1;fillColor=none;align=left;verticalAlign=middle;spacingTop=-1;spacingLeft=3;spacingRight=3;rotatable=0;labelPosition=right;points=[];portConstraint=eastwest;strokeColor=inherit;" parent="9QPMXsnIaiFJWs5hB8Ml-42" vertex="1">
          <mxGeometry y="52" width="510" height="8" as="geometry" />
        </mxCell>
        <mxCell id="9QPMXsnIaiFJWs5hB8Ml-45" value="&lt;span style=&quot;color: rgb(0, 0, 0); font-family: 默认字体; font-size: 14px; text-wrap-mode: nowrap; background-color: rgb(248, 249, 250);&quot;&gt;+ CefRefPtr&amp;lt;CefRenderProcessHandler&amp;gt; GetRenderProcessHandler()&lt;/span&gt;" style="text;strokeColor=none;fillColor=none;align=left;verticalAlign=top;spacingLeft=4;spacingRight=4;overflow=hidden;rotatable=0;points=[[0,0.5],[1,0.5]];portConstraint=eastwest;whiteSpace=wrap;html=1;" parent="9QPMXsnIaiFJWs5hB8Ml-42" vertex="1">
          <mxGeometry y="60" width="510" height="140" as="geometry" />
        </mxCell>
        <mxCell id="9QPMXsnIaiFJWs5hB8Ml-53" style="edgeStyle=orthogonalEdgeStyle;rounded=0;orthogonalLoop=1;jettySize=auto;html=1;exitX=0.5;exitY=0;exitDx=0;exitDy=0;endArrow=block;endFill=0;" parent="1" source="9QPMXsnIaiFJWs5hB8Ml-46" target="9QPMXsnIaiFJWs5hB8Ml-33" edge="1">
          <mxGeometry relative="1" as="geometry" />
        </mxCell>
        <mxCell id="9QPMXsnIaiFJWs5hB8Ml-46" value="&lt;span style=&quot;color: rgb(0, 0, 0); font-family: 默认字体; font-size: 14px; text-wrap-mode: nowrap;&quot;&gt;ClientAppOther&lt;/span&gt;" style="swimlane;fontStyle=1;align=center;verticalAlign=top;childLayout=stackLayout;horizontal=1;startSize=26;horizontalStack=0;resizeParent=1;resizeParentMax=0;resizeLast=0;collapsible=1;marginBottom=0;whiteSpace=wrap;html=1;fillColor=#1ba1e2;fontColor=#ffffff;strokeColor=#006EAF;" parent="1" vertex="1">
          <mxGeometry x="1150" y="1300" width="510" height="200" as="geometry" />
        </mxCell>
        <mxCell id="9QPMXsnIaiFJWs5hB8Ml-47" value="+ field: type" style="text;strokeColor=none;fillColor=none;align=left;verticalAlign=top;spacingLeft=4;spacingRight=4;overflow=hidden;rotatable=0;points=[[0,0.5],[1,0.5]];portConstraint=eastwest;whiteSpace=wrap;html=1;" parent="9QPMXsnIaiFJWs5hB8Ml-46" vertex="1">
          <mxGeometry y="26" width="510" height="26" as="geometry" />
        </mxCell>
        <mxCell id="9QPMXsnIaiFJWs5hB8Ml-48" value="" style="line;strokeWidth=1;fillColor=none;align=left;verticalAlign=middle;spacingTop=-1;spacingLeft=3;spacingRight=3;rotatable=0;labelPosition=right;points=[];portConstraint=eastwest;strokeColor=inherit;" parent="9QPMXsnIaiFJWs5hB8Ml-46" vertex="1">
          <mxGeometry y="52" width="510" height="8" as="geometry" />
        </mxCell>
        <mxCell id="9QPMXsnIaiFJWs5hB8Ml-49" value="&lt;span style=&quot;color: rgb(0, 0, 0); font-family: 默认字体; font-size: 14px; text-wrap-mode: nowrap; background-color: rgb(248, 249, 250);&quot;&gt;+ CefRefPtr&amp;lt;CefRenderProcessHandler&amp;gt; GetRenderProcessHandler()&lt;/span&gt;" style="text;strokeColor=none;fillColor=none;align=left;verticalAlign=top;spacingLeft=4;spacingRight=4;overflow=hidden;rotatable=0;points=[[0,0.5],[1,0.5]];portConstraint=eastwest;whiteSpace=wrap;html=1;" parent="9QPMXsnIaiFJWs5hB8Ml-46" vertex="1">
          <mxGeometry y="60" width="510" height="140" as="geometry" />
        </mxCell>
        <mxCell id="9QPMXsnIaiFJWs5hB8Ml-62" style="edgeStyle=orthogonalEdgeStyle;rounded=0;orthogonalLoop=1;jettySize=auto;html=1;exitX=0;exitY=0;exitDx=0;exitDy=0;entryX=1;entryY=0.5;entryDx=0;entryDy=0;" parent="1" source="9QPMXsnIaiFJWs5hB8Ml-58" target="9QPMXsnIaiFJWs5hB8Ml-36" edge="1">
          <mxGeometry relative="1" as="geometry" />
        </mxCell>
        <mxCell id="9QPMXsnIaiFJWs5hB8Ml-58" value="&lt;span style=&quot;color: rgb(0, 0, 0); font-family: 默认字体; font-size: 14px; text-wrap-mode: nowrap;&quot;&gt;+s YYCefCoreApp&lt;/span&gt;" style="swimlane;fontStyle=1;align=center;verticalAlign=top;childLayout=stackLayout;horizontal=1;startSize=26;horizontalStack=0;resizeParent=1;resizeParentMax=0;resizeLast=0;collapsible=1;marginBottom=0;whiteSpace=wrap;html=1;fillColor=#e51400;fontColor=#ffffff;strokeColor=#B20000;paddingLeft=10;" parent="1" vertex="1">
          <mxGeometry x="1820" y="1840" width="510" height="338" as="geometry" />
        </mxCell>
        <mxCell id="9QPMXsnIaiFJWs5hB8Ml-59" value="&lt;span style=&quot;color: rgb(0, 0, 0); font-family: 默认字体; font-size: 14px; text-wrap-mode: nowrap; background-color: rgb(248, 249, 250);&quot;&gt;CefRefPtr&amp;lt;CefApp&amp;gt; m_cefApp&lt;/span&gt;&lt;br style=&quot;margin: 0px; padding: 0px; color: rgb(0, 0, 0); font-family: 默认字体; font-size: 14px; text-wrap-mode: nowrap; background-color: rgb(248, 249, 250);&quot;&gt;&lt;span style=&quot;color: rgb(0, 0, 0); font-family: 默认字体; font-size: 14px; text-wrap-mode: nowrap; background-color: rgb(248, 249, 250);&quot;&gt;QPointer&amp;lt;YYCefCoreSignalObject&amp;gt; m_signalObject&lt;/span&gt;&lt;br style=&quot;margin: 0px; padding: 0px; color: rgb(0, 0, 0); font-family: 默认字体; font-size: 14px; text-wrap-mode: nowrap; background-color: rgb(248, 249, 250);&quot;&gt;&lt;br style=&quot;margin: 0px; padding: 0px; color: rgb(0, 0, 0); font-family: 默认字体; font-size: 14px; text-wrap-mode: nowrap; background-color: rgb(248, 249, 250);&quot;&gt;&lt;span style=&quot;color: rgb(0, 0, 0); font-family: 默认字体; font-size: 14px; text-wrap-mode: nowrap; background-color: rgb(248, 249, 250);&quot;&gt;std::set&amp;lt;YYCefBrowser*&amp;gt; m_browsers;&lt;/span&gt;&lt;br style=&quot;margin: 0px; padding: 0px; color: rgb(0, 0, 0); font-family: 默认字体; font-size: 14px; text-wrap-mode: nowrap; background-color: rgb(248, 249, 250);&quot;&gt;&lt;span style=&quot;color: rgb(0, 0, 0); font-family: 默认字体; font-size: 14px; text-wrap-mode: nowrap; background-color: rgb(248, 249, 250);&quot;&gt;std::map&amp;lt;int, QSharedPointer&amp;lt;YYCefBrowser&amp;gt;&amp;gt; m_popupBrowsers;&lt;/span&gt;&lt;br style=&quot;margin: 0px; padding: 0px; color: rgb(0, 0, 0); font-family: 默认字体; font-size: 14px; text-wrap-mode: nowrap; background-color: rgb(248, 249, 250);&quot;&gt;&lt;span style=&quot;color: rgb(0, 0, 0); font-family: 默认字体; font-size: 14px; text-wrap-mode: nowrap; background-color: rgb(248, 249, 250);&quot;&gt;std::list&amp;lt;CefRefPtr&amp;lt;CefBrowser&amp;gt;&amp;gt; m_cefbrowsers;&lt;/span&gt;&lt;br style=&quot;margin: 0px; padding: 0px; color: rgb(0, 0, 0); font-family: 默认字体; font-size: 14px; text-wrap-mode: nowrap; background-color: rgb(248, 249, 250);&quot;&gt;&lt;br style=&quot;margin: 0px; padding: 0px; color: rgb(0, 0, 0); font-family: 默认字体; font-size: 14px; text-wrap-mode: nowrap; background-color: rgb(248, 249, 250);&quot;&gt;&lt;span style=&quot;color: rgb(0, 0, 0); font-family: 默认字体; font-size: 14px; text-wrap-mode: nowrap; background-color: rgb(248, 249, 250);&quot;&gt;std::set&amp;lt;client::BrowserDelegate*&amp;gt; m_browserDelegates;&lt;/span&gt;&lt;br style=&quot;margin: 0px; padding: 0px; color: rgb(0, 0, 0); font-family: 默认字体; font-size: 14px; text-wrap-mode: nowrap; background-color: rgb(248, 249, 250);&quot;&gt;&lt;span style=&quot;color: rgb(0, 0, 0); font-family: 默认字体; font-size: 14px; text-wrap-mode: nowrap; background-color: rgb(248, 249, 250);&quot;&gt;std::set&amp;lt;client::RenderDelegate*&amp;gt; m_renderDelegates;&lt;/span&gt;" style="text;strokeColor=none;fillColor=none;align=left;verticalAlign=top;spacingLeft=4;spacingRight=4;overflow=hidden;rotatable=0;points=[[0,0.5],[1,0.5]];portConstraint=eastwest;whiteSpace=wrap;html=1;" parent="9QPMXsnIaiFJWs5hB8Ml-58" vertex="1">
          <mxGeometry y="26" width="510" height="164" as="geometry" />
        </mxCell>
        <mxCell id="9QPMXsnIaiFJWs5hB8Ml-60" value="" style="line;strokeWidth=1;fillColor=none;align=left;verticalAlign=middle;spacingTop=-1;spacingLeft=3;spacingRight=3;rotatable=0;labelPosition=right;points=[];portConstraint=eastwest;strokeColor=inherit;" parent="9QPMXsnIaiFJWs5hB8Ml-58" vertex="1">
          <mxGeometry y="190" width="510" height="8" as="geometry" />
        </mxCell>
        <mxCell id="9QPMXsnIaiFJWs5hB8Ml-61" value="&lt;span style=&quot;color: rgb(0, 0, 0); font-family: 默认字体; font-size: 14px; background-color: rgb(248, 249, 250);&quot;&gt;+ static YYCefCoreApp*&amp;nbsp;&lt;/span&gt;&lt;font style=&quot;margin: 0px; padding: 0px; font-family: 默认字体; font-size: 14px; background-color: rgb(248, 249, 250);&quot; color=&quot;#ff0000&quot;&gt;&lt;b style=&quot;margin: 0px; padding: 0px;&quot;&gt;getInstance&lt;/b&gt;&lt;/font&gt;&lt;span style=&quot;color: rgb(0, 0, 0); font-family: 默认字体; font-size: 14px; background-color: rgb(248, 249, 250);&quot;&gt;()&lt;/span&gt;" style="text;strokeColor=none;fillColor=none;align=left;verticalAlign=top;spacingLeft=4;spacingRight=4;overflow=hidden;rotatable=0;points=[[0,0.5],[1,0.5]];portConstraint=eastwest;whiteSpace=wrap;html=1;" parent="9QPMXsnIaiFJWs5hB8Ml-58" vertex="1">
          <mxGeometry y="198" width="510" height="140" as="geometry" />
        </mxCell>
        <mxCell id="9QPMXsnIaiFJWs5hB8Ml-63" value="&lt;span style=&quot;color: rgb(0, 0, 0); font-family: 默认字体; font-size: 14px;&quot;&gt;yyCefCoreAppPrivate()&lt;/span&gt;" style="rounded=0;whiteSpace=wrap;html=1;fillColor=#1ba1e2;fontColor=#ffffff;strokeColor=#006EAF;labelBackgroundColor=none;" parent="1" vertex="1">
          <mxGeometry x="1100" y="2010" width="630" height="72" as="geometry" />
        </mxCell>
        <mxCell id="9QPMXsnIaiFJWs5hB8Ml-88" style="edgeStyle=orthogonalEdgeStyle;rounded=0;orthogonalLoop=1;jettySize=auto;html=1;exitX=0.5;exitY=0;exitDx=0;exitDy=0;startArrow=diamondThin;startFill=1;" parent="1" source="9QPMXsnIaiFJWs5hB8Ml-58" target="9QPMXsnIaiFJWs5hB8Ml-64" edge="1">
          <mxGeometry relative="1" as="geometry">
            <mxPoint x="2000" y="700" as="targetPoint" />
          </mxGeometry>
        </mxCell>
        <mxCell id="9QPMXsnIaiFJWs5hB8Ml-102" style="edgeStyle=orthogonalEdgeStyle;rounded=0;orthogonalLoop=1;jettySize=auto;html=1;exitX=0.5;exitY=0;exitDx=0;exitDy=0;" parent="1" source="9QPMXsnIaiFJWs5hB8Ml-89" target="9QPMXsnIaiFJWs5hB8Ml-94" edge="1">
          <mxGeometry relative="1" as="geometry" />
        </mxCell>
        <mxCell id="9QPMXsnIaiFJWs5hB8Ml-103" style="edgeStyle=orthogonalEdgeStyle;rounded=0;orthogonalLoop=1;jettySize=auto;html=1;exitX=0.5;exitY=0;exitDx=0;exitDy=0;" parent="1" source="9QPMXsnIaiFJWs5hB8Ml-89" target="9QPMXsnIaiFJWs5hB8Ml-98" edge="1">
          <mxGeometry relative="1" as="geometry" />
        </mxCell>
        <mxCell id="9QPMXsnIaiFJWs5hB8Ml-104" value="or" style="edgeLabel;html=1;align=center;verticalAlign=middle;resizable=0;points=[];" parent="9QPMXsnIaiFJWs5hB8Ml-103" vertex="1" connectable="0">
          <mxGeometry x="-0.8792" y="1" relative="1" as="geometry">
            <mxPoint as="offset" />
          </mxGeometry>
        </mxCell>
        <mxCell id="9QPMXsnIaiFJWs5hB8Ml-89" value="&lt;span style=&quot;color: rgb(0, 0, 0); font-family: 默认字体; font-size: 14px; text-wrap-mode: nowrap;&quot;&gt;YYCefBrowser&lt;/span&gt;" style="swimlane;fontStyle=1;align=center;verticalAlign=top;childLayout=stackLayout;horizontal=1;startSize=26;horizontalStack=0;resizeParent=1;resizeParentMax=0;resizeLast=0;collapsible=1;marginBottom=0;whiteSpace=wrap;html=1;fillColor=#1ba1e2;fontColor=#ffffff;strokeColor=#006EAF;paddingLeft=10;" parent="1" vertex="1">
          <mxGeometry x="2860" y="1480" width="510" height="338" as="geometry" />
        </mxCell>
        <mxCell id="9QPMXsnIaiFJWs5hB8Ml-90" value="&lt;span style=&quot;color: rgb(0, 0, 0); font-family: 默认字体; font-size: 14px; text-wrap-mode: nowrap; background-color: rgb(248, 249, 250);&quot;&gt;YYCefBrowserWindow* m_hostWindow&lt;/span&gt;&lt;br style=&quot;margin: 0px; padding: 0px; color: rgb(0, 0, 0); font-family: 默认字体; font-size: 14px; text-wrap-mode: nowrap; background-color: rgb(248, 249, 250);&quot;&gt;&lt;span style=&quot;color: rgb(0, 0, 0); font-family: 默认字体; font-size: 14px; text-wrap-mode: nowrap; background-color: rgb(248, 249, 250);&quot;&gt;CefRefPtr&amp;lt;CefBrowser&amp;gt; m_browser;&lt;/span&gt;&lt;br style=&quot;margin: 0px; padding: 0px; color: rgb(0, 0, 0); font-family: 默认字体; font-size: 14px; text-wrap-mode: nowrap; background-color: rgb(248, 249, 250);&quot;&gt;&lt;span style=&quot;color: rgb(0, 0, 0); font-family: 默认字体; font-size: 14px; text-wrap-mode: nowrap; background-color: rgb(248, 249, 250);&quot;&gt;CefRefPtr&amp;lt;client::ClientHandler&amp;gt; m_clientHandler;&lt;/span&gt;&lt;br style=&quot;margin: 0px; padding: 0px; color: rgb(0, 0, 0); font-family: 默认字体; font-size: 14px; text-wrap-mode: nowrap; background-color: rgb(248, 249, 250);&quot;&gt;&lt;span style=&quot;color: rgb(0, 0, 0); font-family: 默认字体; font-size: 14px; text-wrap-mode: nowrap; background-color: rgb(248, 249, 250);&quot;&gt;QSharedPointer&amp;lt;OsrRenderer&amp;gt; m_renderer&lt;/span&gt;" style="text;strokeColor=none;fillColor=none;align=left;verticalAlign=top;spacingLeft=4;spacingRight=4;overflow=hidden;rotatable=0;points=[[0,0.5],[1,0.5]];portConstraint=eastwest;whiteSpace=wrap;html=1;" parent="9QPMXsnIaiFJWs5hB8Ml-89" vertex="1">
          <mxGeometry y="26" width="510" height="164" as="geometry" />
        </mxCell>
        <mxCell id="9QPMXsnIaiFJWs5hB8Ml-91" value="" style="line;strokeWidth=1;fillColor=none;align=left;verticalAlign=middle;spacingTop=-1;spacingLeft=3;spacingRight=3;rotatable=0;labelPosition=right;points=[];portConstraint=eastwest;strokeColor=inherit;" parent="9QPMXsnIaiFJWs5hB8Ml-89" vertex="1">
          <mxGeometry y="190" width="510" height="8" as="geometry" />
        </mxCell>
        <mxCell id="9QPMXsnIaiFJWs5hB8Ml-92" value="&lt;span style=&quot;color: rgb(0, 0, 0); font-family: 默认字体; font-size: 14px; background-color: rgb(248, 249, 250);&quot;&gt;+&lt;/span&gt;" style="text;strokeColor=none;fillColor=none;align=left;verticalAlign=top;spacingLeft=4;spacingRight=4;overflow=hidden;rotatable=0;points=[[0,0.5],[1,0.5]];portConstraint=eastwest;whiteSpace=wrap;html=1;" parent="9QPMXsnIaiFJWs5hB8Ml-89" vertex="1">
          <mxGeometry y="198" width="510" height="140" as="geometry" />
        </mxCell>
        <mxCell id="9QPMXsnIaiFJWs5hB8Ml-93" style="edgeStyle=orthogonalEdgeStyle;rounded=0;orthogonalLoop=1;jettySize=auto;html=1;startArrow=diamond;startFill=1;" parent="1" source="9QPMXsnIaiFJWs5hB8Ml-58" target="9QPMXsnIaiFJWs5hB8Ml-89" edge="1">
          <mxGeometry relative="1" as="geometry" />
        </mxCell>
        <mxCell id="9QPMXsnIaiFJWs5hB8Ml-94" value="&lt;span style=&quot;color: rgb(0, 0, 0); font-family: 默认字体; font-size: 14px; text-wrap-mode: nowrap;&quot;&gt;ClientAppOther&lt;/span&gt;" style="swimlane;fontStyle=1;align=center;verticalAlign=top;childLayout=stackLayout;horizontal=1;startSize=26;horizontalStack=0;resizeParent=1;resizeParentMax=0;resizeLast=0;collapsible=1;marginBottom=0;whiteSpace=wrap;html=1;fillColor=#1ba1e2;fontColor=#ffffff;strokeColor=#006EAF;" parent="1" vertex="1">
          <mxGeometry x="2840" y="969" width="510" height="200" as="geometry" />
        </mxCell>
        <mxCell id="9QPMXsnIaiFJWs5hB8Ml-95" value="+ field: type" style="text;strokeColor=none;fillColor=none;align=left;verticalAlign=top;spacingLeft=4;spacingRight=4;overflow=hidden;rotatable=0;points=[[0,0.5],[1,0.5]];portConstraint=eastwest;whiteSpace=wrap;html=1;" parent="9QPMXsnIaiFJWs5hB8Ml-94" vertex="1">
          <mxGeometry y="26" width="510" height="26" as="geometry" />
        </mxCell>
        <mxCell id="9QPMXsnIaiFJWs5hB8Ml-96" value="" style="line;strokeWidth=1;fillColor=none;align=left;verticalAlign=middle;spacingTop=-1;spacingLeft=3;spacingRight=3;rotatable=0;labelPosition=right;points=[];portConstraint=eastwest;strokeColor=inherit;" parent="9QPMXsnIaiFJWs5hB8Ml-94" vertex="1">
          <mxGeometry y="52" width="510" height="8" as="geometry" />
        </mxCell>
        <mxCell id="9QPMXsnIaiFJWs5hB8Ml-97" value="&lt;span style=&quot;color: rgb(0, 0, 0); font-family: 默认字体; font-size: 14px; text-wrap-mode: nowrap; background-color: rgb(248, 249, 250);&quot;&gt;+ CefRefPtr&amp;lt;CefRenderProcessHandler&amp;gt; GetRenderProcessHandler()&lt;/span&gt;" style="text;strokeColor=none;fillColor=none;align=left;verticalAlign=top;spacingLeft=4;spacingRight=4;overflow=hidden;rotatable=0;points=[[0,0.5],[1,0.5]];portConstraint=eastwest;whiteSpace=wrap;html=1;" parent="9QPMXsnIaiFJWs5hB8Ml-94" vertex="1">
          <mxGeometry y="60" width="510" height="140" as="geometry" />
        </mxCell>
        <mxCell id="9QPMXsnIaiFJWs5hB8Ml-98" value="&lt;span style=&quot;color: rgb(0, 0, 0); font-family: 默认字体; font-size: 14px; text-wrap-mode: nowrap;&quot;&gt;ClientAppOther&lt;/span&gt;" style="swimlane;fontStyle=1;align=center;verticalAlign=top;childLayout=stackLayout;horizontal=1;startSize=26;horizontalStack=0;resizeParent=1;resizeParentMax=0;resizeLast=0;collapsible=1;marginBottom=0;whiteSpace=wrap;html=1;fillColor=#1ba1e2;fontColor=#ffffff;strokeColor=#006EAF;" parent="1" vertex="1">
          <mxGeometry x="3550" y="950" width="510" height="200" as="geometry" />
        </mxCell>
        <mxCell id="9QPMXsnIaiFJWs5hB8Ml-99" value="+ field: type" style="text;strokeColor=none;fillColor=none;align=left;verticalAlign=top;spacingLeft=4;spacingRight=4;overflow=hidden;rotatable=0;points=[[0,0.5],[1,0.5]];portConstraint=eastwest;whiteSpace=wrap;html=1;" parent="9QPMXsnIaiFJWs5hB8Ml-98" vertex="1">
          <mxGeometry y="26" width="510" height="26" as="geometry" />
        </mxCell>
        <mxCell id="9QPMXsnIaiFJWs5hB8Ml-100" value="" style="line;strokeWidth=1;fillColor=none;align=left;verticalAlign=middle;spacingTop=-1;spacingLeft=3;spacingRight=3;rotatable=0;labelPosition=right;points=[];portConstraint=eastwest;strokeColor=inherit;" parent="9QPMXsnIaiFJWs5hB8Ml-98" vertex="1">
          <mxGeometry y="52" width="510" height="8" as="geometry" />
        </mxCell>
        <mxCell id="9QPMXsnIaiFJWs5hB8Ml-101" value="&lt;span style=&quot;color: rgb(0, 0, 0); font-family: 默认字体; font-size: 14px; text-wrap-mode: nowrap; background-color: rgb(248, 249, 250);&quot;&gt;+ CefRefPtr&amp;lt;CefRenderProcessHandler&amp;gt; GetRenderProcessHandler()&lt;/span&gt;" style="text;strokeColor=none;fillColor=none;align=left;verticalAlign=top;spacingLeft=4;spacingRight=4;overflow=hidden;rotatable=0;points=[[0,0.5],[1,0.5]];portConstraint=eastwest;whiteSpace=wrap;html=1;" parent="9QPMXsnIaiFJWs5hB8Ml-98" vertex="1">
          <mxGeometry y="60" width="510" height="140" as="geometry" />
        </mxCell>
        <mxCell id="9QPMXsnIaiFJWs5hB8Ml-105" value="&lt;span style=&quot;color: rgb(0, 0, 0); font-family: 默认字体; font-size: 14px; text-wrap-mode: nowrap;&quot;&gt;ClientHandler&lt;/span&gt;" style="swimlane;fontStyle=1;align=center;verticalAlign=top;childLayout=stackLayout;horizontal=1;startSize=26;horizontalStack=0;resizeParent=1;resizeParentMax=0;resizeLast=0;collapsible=1;marginBottom=0;whiteSpace=wrap;html=1;fillColor=#1ba1e2;fontColor=#ffffff;strokeColor=#006EAF;" parent="1" vertex="1">
          <mxGeometry x="3760" y="1470" width="510" height="200" as="geometry" />
        </mxCell>
        <mxCell id="9QPMXsnIaiFJWs5hB8Ml-106" value="+ field: type" style="text;strokeColor=none;fillColor=none;align=left;verticalAlign=top;spacingLeft=4;spacingRight=4;overflow=hidden;rotatable=0;points=[[0,0.5],[1,0.5]];portConstraint=eastwest;whiteSpace=wrap;html=1;" parent="9QPMXsnIaiFJWs5hB8Ml-105" vertex="1">
          <mxGeometry y="26" width="510" height="26" as="geometry" />
        </mxCell>
        <mxCell id="9QPMXsnIaiFJWs5hB8Ml-107" value="" style="line;strokeWidth=1;fillColor=none;align=left;verticalAlign=middle;spacingTop=-1;spacingLeft=3;spacingRight=3;rotatable=0;labelPosition=right;points=[];portConstraint=eastwest;strokeColor=inherit;" parent="9QPMXsnIaiFJWs5hB8Ml-105" vertex="1">
          <mxGeometry y="52" width="510" height="8" as="geometry" />
        </mxCell>
        <mxCell id="9QPMXsnIaiFJWs5hB8Ml-108" value="&lt;font face=&quot;默认字体&quot; color=&quot;#ededed&quot;&gt;&lt;span style=&quot;font-size: 14px; text-wrap-mode: nowrap; background-color: rgb(22, 23, 24);&quot;&gt;+&lt;/span&gt;&lt;/font&gt;" style="text;strokeColor=none;fillColor=none;align=left;verticalAlign=top;spacingLeft=4;spacingRight=4;overflow=hidden;rotatable=0;points=[[0,0.5],[1,0.5]];portConstraint=eastwest;whiteSpace=wrap;html=1;" parent="9QPMXsnIaiFJWs5hB8Ml-105" vertex="1">
          <mxGeometry y="60" width="510" height="140" as="geometry" />
        </mxCell>
        <mxCell id="9QPMXsnIaiFJWs5hB8Ml-109" value="&lt;span style=&quot;color: rgb(0, 0, 0); font-family: 默认字体; font-size: 14px; text-wrap-mode: nowrap;&quot;&gt;OsrRenderer&lt;/span&gt;" style="swimlane;fontStyle=1;align=center;verticalAlign=top;childLayout=stackLayout;horizontal=1;startSize=26;horizontalStack=0;resizeParent=1;resizeParentMax=0;resizeLast=0;collapsible=1;marginBottom=0;whiteSpace=wrap;html=1;fillColor=#1ba1e2;fontColor=#ffffff;strokeColor=#006EAF;" parent="1" vertex="1">
          <mxGeometry x="3750" y="1754" width="510" height="200" as="geometry" />
        </mxCell>
        <mxCell id="9QPMXsnIaiFJWs5hB8Ml-110" value="+ field: type" style="text;strokeColor=none;fillColor=none;align=left;verticalAlign=top;spacingLeft=4;spacingRight=4;overflow=hidden;rotatable=0;points=[[0,0.5],[1,0.5]];portConstraint=eastwest;whiteSpace=wrap;html=1;" parent="9QPMXsnIaiFJWs5hB8Ml-109" vertex="1">
          <mxGeometry y="26" width="510" height="26" as="geometry" />
        </mxCell>
        <mxCell id="9QPMXsnIaiFJWs5hB8Ml-111" value="" style="line;strokeWidth=1;fillColor=none;align=left;verticalAlign=middle;spacingTop=-1;spacingLeft=3;spacingRight=3;rotatable=0;labelPosition=right;points=[];portConstraint=eastwest;strokeColor=inherit;" parent="9QPMXsnIaiFJWs5hB8Ml-109" vertex="1">
          <mxGeometry y="52" width="510" height="8" as="geometry" />
        </mxCell>
        <mxCell id="9QPMXsnIaiFJWs5hB8Ml-112" value="&lt;font face=&quot;默认字体&quot; color=&quot;#ededed&quot;&gt;&lt;span style=&quot;font-size: 14px; text-wrap-mode: nowrap; background-color: rgb(22, 23, 24);&quot;&gt;+&lt;/span&gt;&lt;/font&gt;" style="text;strokeColor=none;fillColor=none;align=left;verticalAlign=top;spacingLeft=4;spacingRight=4;overflow=hidden;rotatable=0;points=[[0,0.5],[1,0.5]];portConstraint=eastwest;whiteSpace=wrap;html=1;" parent="9QPMXsnIaiFJWs5hB8Ml-109" vertex="1">
          <mxGeometry y="60" width="510" height="140" as="geometry" />
        </mxCell>
        <mxCell id="9QPMXsnIaiFJWs5hB8Ml-113" style="edgeStyle=orthogonalEdgeStyle;rounded=0;orthogonalLoop=1;jettySize=auto;html=1;exitX=1;exitY=0.5;exitDx=0;exitDy=0;" parent="1" source="9QPMXsnIaiFJWs5hB8Ml-90" target="9QPMXsnIaiFJWs5hB8Ml-105" edge="1">
          <mxGeometry relative="1" as="geometry" />
        </mxCell>
        <mxCell id="9QPMXsnIaiFJWs5hB8Ml-114" style="edgeStyle=orthogonalEdgeStyle;rounded=0;orthogonalLoop=1;jettySize=auto;html=1;exitX=1;exitY=0.5;exitDx=0;exitDy=0;" parent="1" source="9QPMXsnIaiFJWs5hB8Ml-92" target="9QPMXsnIaiFJWs5hB8Ml-109" edge="1">
          <mxGeometry relative="1" as="geometry" />
        </mxCell>
        <mxCell id="9QPMXsnIaiFJWs5hB8Ml-115" value="&lt;span style=&quot;color: rgb(0, 0, 0); font-family: 默认字体; font-size: 14px; text-wrap-mode: nowrap;&quot;&gt;+s YYCefV8BindApp2&lt;/span&gt;" style="swimlane;fontStyle=1;align=center;verticalAlign=top;childLayout=stackLayout;horizontal=1;startSize=26;horizontalStack=0;resizeParent=1;resizeParentMax=0;resizeLast=0;collapsible=1;marginBottom=0;whiteSpace=wrap;html=1;fillColor=#e51400;fontColor=#ffffff;strokeColor=#B20000;" parent="1" vertex="1">
          <mxGeometry x="4549" y="2420" width="510" height="200" as="geometry" />
        </mxCell>
        <mxCell id="9QPMXsnIaiFJWs5hB8Ml-116" value="+ field: type" style="text;strokeColor=none;fillColor=none;align=left;verticalAlign=top;spacingLeft=4;spacingRight=4;overflow=hidden;rotatable=0;points=[[0,0.5],[1,0.5]];portConstraint=eastwest;whiteSpace=wrap;html=1;" parent="9QPMXsnIaiFJWs5hB8Ml-115" vertex="1">
          <mxGeometry y="26" width="510" height="26" as="geometry" />
        </mxCell>
        <mxCell id="9QPMXsnIaiFJWs5hB8Ml-117" value="" style="line;strokeWidth=1;fillColor=none;align=left;verticalAlign=middle;spacingTop=-1;spacingLeft=3;spacingRight=3;rotatable=0;labelPosition=right;points=[];portConstraint=eastwest;strokeColor=inherit;" parent="9QPMXsnIaiFJWs5hB8Ml-115" vertex="1">
          <mxGeometry y="52" width="510" height="8" as="geometry" />
        </mxCell>
        <mxCell id="9QPMXsnIaiFJWs5hB8Ml-118" value="&lt;span style=&quot;color: rgb(0, 0, 0); font-family: 默认字体; font-size: 14px; background-color: rgb(248, 249, 250);&quot;&gt;+ static YYCefV8BindApp2*&amp;nbsp;&lt;/span&gt;&lt;b style=&quot;margin: 0px; padding: 0px; color: rgb(0, 0, 0); font-family: 默认字体; font-size: 14px; background-color: rgb(248, 249, 250);&quot;&gt;&lt;font style=&quot;margin: 0px; padding: 0px;&quot; color=&quot;#c00000&quot;&gt;getInstance()&lt;/font&gt;&lt;/b&gt;&lt;span style=&quot;color: rgb(0, 0, 0); font-family: 默认字体; font-size: 14px; background-color: rgb(248, 249, 250);&quot;&gt;;&lt;/span&gt;&lt;br style=&quot;margin: 0px; padding: 0px; color: rgb(0, 0, 0); font-family: 默认字体; font-size: 14px; background-color: rgb(248, 249, 250);&quot;&gt;&lt;span style=&quot;color: rgb(0, 0, 0); font-family: 默认字体; font-size: 14px; background-color: rgb(248, 249, 250);&quot;&gt;+ void&amp;nbsp;&lt;/span&gt;&lt;font style=&quot;margin: 0px; padding: 0px; font-family: 默认字体; font-size: 14px; background-color: rgb(248, 249, 250);&quot; color=&quot;#ffc000&quot;&gt;setV8RootObject&lt;/font&gt;&lt;span style=&quot;color: rgb(0, 0, 0); font-family: 默认字体; font-size: 14px; background-color: rgb(248, 249, 250);&quot;&gt;(QObject* o);&lt;/span&gt;&lt;br style=&quot;margin: 0px; padding: 0px; color: rgb(0, 0, 0); font-family: 默认字体; font-size: 14px; background-color: rgb(248, 249, 250);&quot;&gt;&lt;span style=&quot;color: rgb(0, 0, 0); font-family: 默认字体; font-size: 14px; background-color: rgb(248, 249, 250);&quot;&gt;+ void&amp;nbsp;&lt;/span&gt;&lt;font style=&quot;margin: 0px; padding: 0px; font-family: 默认字体; font-size: 14px; background-color: rgb(248, 249, 250);&quot; color=&quot;#ffc000&quot;&gt;addWindowObject&lt;/font&gt;&lt;span style=&quot;color: rgb(0, 0, 0); font-family: 默认字体; font-size: 14px; background-color: rgb(248, 249, 250);&quot;&gt;(int cefBrowserId, QObject* o);&lt;/span&gt;&lt;br style=&quot;margin: 0px; padding: 0px; color: rgb(0, 0, 0); font-family: 默认字体; font-size: 14px; background-color: rgb(248, 249, 250);&quot;&gt;&lt;span style=&quot;color: rgb(0, 0, 0); font-family: 默认字体; font-size: 14px; background-color: rgb(248, 249, 250);&quot;&gt;void removeWindowObject(int cefBrowserId);&lt;/span&gt;&lt;br style=&quot;margin: 0px; padding: 0px; color: rgb(0, 0, 0); font-family: 默认字体; font-size: 14px; background-color: rgb(248, 249, 250);&quot;&gt;&lt;br style=&quot;margin: 0px; padding: 0px; color: rgb(0, 0, 0); font-family: 默认字体; font-size: 14px; background-color: rgb(248, 249, 250);&quot;&gt;&lt;span style=&quot;color: rgb(0, 0, 0); font-family: 默认字体; font-size: 14px; background-color: rgb(248, 249, 250);&quot;&gt;QObject* getWindowObject(int cefBrowserId);&lt;/span&gt;&lt;br style=&quot;margin: 0px; padding: 0px; color: rgb(0, 0, 0); font-family: 默认字体; font-size: 14px; background-color: rgb(248, 249, 250);&quot;&gt;&lt;br style=&quot;margin: 0px; padding: 0px; color: rgb(0, 0, 0); font-family: 默认字体; font-size: 14px; background-color: rgb(248, 249, 250);&quot;&gt;&lt;span style=&quot;color: rgb(0, 0, 0); font-family: 默认字体; font-size: 14px; background-color: rgb(248, 249, 250);&quot;&gt;CefV8DelegateHandler* getV8DelegateHandler();&lt;/span&gt;" style="text;strokeColor=none;fillColor=none;align=left;verticalAlign=top;spacingLeft=4;spacingRight=4;overflow=hidden;rotatable=0;points=[[0,0.5],[1,0.5]];portConstraint=eastwest;whiteSpace=wrap;html=1;" parent="9QPMXsnIaiFJWs5hB8Ml-115" vertex="1">
          <mxGeometry y="60" width="510" height="140" as="geometry" />
        </mxCell>
        <mxCell id="9QPMXsnIaiFJWs5hB8Ml-129" style="edgeStyle=orthogonalEdgeStyle;rounded=0;orthogonalLoop=1;jettySize=auto;html=1;exitX=0.5;exitY=0;exitDx=0;exitDy=0;entryX=0.5;entryY=1;entryDx=0;entryDy=0;endArrow=open;endFill=0;" parent="1" source="9QPMXsnIaiFJWs5hB8Ml-119" target="9QPMXsnIaiFJWs5hB8Ml-125" edge="1">
          <mxGeometry relative="1" as="geometry" />
        </mxCell>
        <mxCell id="9QPMXsnIaiFJWs5hB8Ml-119" value="&lt;span style=&quot;color: rgb(0, 0, 0); font-family: 默认字体; font-size: 14px; text-wrap-mode: nowrap;&quot;&gt;CefV8DelegateHandler&lt;/span&gt;" style="swimlane;fontStyle=1;align=center;verticalAlign=top;childLayout=stackLayout;horizontal=1;startSize=26;horizontalStack=0;resizeParent=1;resizeParentMax=0;resizeLast=0;collapsible=1;marginBottom=0;whiteSpace=wrap;html=1;fillColor=#1ba1e2;fontColor=#ffffff;strokeColor=#006EAF;" parent="1" vertex="1">
          <mxGeometry x="4549" y="1800" width="510" height="200" as="geometry" />
        </mxCell>
        <mxCell id="9QPMXsnIaiFJWs5hB8Ml-120" value="&lt;span style=&quot;color: rgb(0, 0, 0); font-family: 默认字体; font-size: 14px; text-wrap-mode: nowrap; background-color: rgb(248, 249, 250);&quot;&gt;+ std::map&amp;lt;uint64_t, YCCefV8Context*&amp;gt; m_contexts&lt;/span&gt;" style="text;strokeColor=none;fillColor=none;align=left;verticalAlign=top;spacingLeft=4;spacingRight=4;overflow=hidden;rotatable=0;points=[[0,0.5],[1,0.5]];portConstraint=eastwest;whiteSpace=wrap;html=1;" parent="9QPMXsnIaiFJWs5hB8Ml-119" vertex="1">
          <mxGeometry y="26" width="510" height="26" as="geometry" />
        </mxCell>
        <mxCell id="9QPMXsnIaiFJWs5hB8Ml-121" value="" style="line;strokeWidth=1;fillColor=none;align=left;verticalAlign=middle;spacingTop=-1;spacingLeft=3;spacingRight=3;rotatable=0;labelPosition=right;points=[];portConstraint=eastwest;strokeColor=inherit;" parent="9QPMXsnIaiFJWs5hB8Ml-119" vertex="1">
          <mxGeometry y="52" width="510" height="8" as="geometry" />
        </mxCell>
        <mxCell id="9QPMXsnIaiFJWs5hB8Ml-122" value="&lt;font face=&quot;默认字体&quot; color=&quot;#ededed&quot;&gt;&lt;span style=&quot;font-size: 14px; text-wrap-mode: nowrap; background-color: rgb(22, 23, 24);&quot;&gt;+&lt;/span&gt;&lt;/font&gt;" style="text;strokeColor=none;fillColor=none;align=left;verticalAlign=top;spacingLeft=4;spacingRight=4;overflow=hidden;rotatable=0;points=[[0,0.5],[1,0.5]];portConstraint=eastwest;whiteSpace=wrap;html=1;" parent="9QPMXsnIaiFJWs5hB8Ml-119" vertex="1">
          <mxGeometry y="60" width="510" height="140" as="geometry" />
        </mxCell>
        <mxCell id="9QPMXsnIaiFJWs5hB8Ml-123" style="edgeStyle=orthogonalEdgeStyle;rounded=0;orthogonalLoop=1;jettySize=auto;html=1;exitX=1;exitY=0.5;exitDx=0;exitDy=0;endArrow=open;endFill=0;" parent="1" source="9QPMXsnIaiFJWs5hB8Ml-61" target="9QPMXsnIaiFJWs5hB8Ml-119" edge="1">
          <mxGeometry relative="1" as="geometry" />
        </mxCell>
        <mxCell id="9QPMXsnIaiFJWs5hB8Ml-124" style="edgeStyle=orthogonalEdgeStyle;rounded=0;orthogonalLoop=1;jettySize=auto;html=1;endArrow=open;endFill=0;" parent="1" source="9QPMXsnIaiFJWs5hB8Ml-115" target="9QPMXsnIaiFJWs5hB8Ml-119" edge="1">
          <mxGeometry relative="1" as="geometry" />
        </mxCell>
        <mxCell id="9QPMXsnIaiFJWs5hB8Ml-125" value="&lt;span style=&quot;color: rgb(0, 0, 0); font-family: 默认字体; font-size: 14px; text-wrap-mode: nowrap;&quot;&gt;RenderDelegate&lt;/span&gt;" style="swimlane;fontStyle=1;align=center;verticalAlign=top;childLayout=stackLayout;horizontal=1;startSize=26;horizontalStack=0;resizeParent=1;resizeParentMax=0;resizeLast=0;collapsible=1;marginBottom=0;whiteSpace=wrap;html=1;fillColor=#1ba1e2;fontColor=#ffffff;strokeColor=#006EAF;" parent="1" vertex="1">
          <mxGeometry x="4530" y="1169" width="510" height="500" as="geometry" />
        </mxCell>
        <mxCell id="9QPMXsnIaiFJWs5hB8Ml-126" value="&lt;span style=&quot;color: rgb(0, 0, 0); font-family: 默认字体; font-size: 14px; text-wrap-mode: nowrap; background-color: rgb(248, 249, 250);&quot;&gt;+ std::map&amp;lt;uint64_t, YCCefV8Context*&amp;gt; m_contexts&lt;/span&gt;" style="text;strokeColor=none;fillColor=none;align=left;verticalAlign=top;spacingLeft=4;spacingRight=4;overflow=hidden;rotatable=0;points=[[0,0.5],[1,0.5]];portConstraint=eastwest;whiteSpace=wrap;html=1;" parent="9QPMXsnIaiFJWs5hB8Ml-125" vertex="1">
          <mxGeometry y="26" width="510" height="26" as="geometry" />
        </mxCell>
        <mxCell id="9QPMXsnIaiFJWs5hB8Ml-127" value="" style="line;strokeWidth=1;fillColor=none;align=left;verticalAlign=middle;spacingTop=-1;spacingLeft=3;spacingRight=3;rotatable=0;labelPosition=right;points=[];portConstraint=eastwest;strokeColor=inherit;" parent="9QPMXsnIaiFJWs5hB8Ml-125" vertex="1">
          <mxGeometry y="52" width="510" height="8" as="geometry" />
        </mxCell>
        <mxCell id="9QPMXsnIaiFJWs5hB8Ml-128" value="&lt;span style=&quot;color: rgb(0, 0, 0); font-family: 默认字体; font-size: 14px; background-color: rgb(248, 249, 250);&quot;&gt;virtual void&amp;nbsp;&lt;/span&gt;&lt;font style=&quot;margin: 0px; padding: 0px; font-family: 默认字体; font-size: 14px; background-color: rgb(248, 249, 250);&quot; color=&quot;#a38200&quot;&gt;OnRenderThreadCreated&lt;/font&gt;&lt;span style=&quot;color: rgb(0, 0, 0); font-family: 默认字体; font-size: 14px; background-color: rgb(248, 249, 250);&quot;&gt;(CefRefPtr&amp;lt;CefListValue&amp;gt; extra_info) {};&lt;/span&gt;&lt;br style=&quot;margin: 0px; padding: 0px; color: rgb(0, 0, 0); font-family: 默认字体; font-size: 14px; background-color: rgb(248, 249, 250);&quot;&gt;&lt;span style=&quot;color: rgb(0, 0, 0); font-family: 默认字体; font-size: 14px; background-color: rgb(248, 249, 250);&quot;&gt;virtual void&amp;nbsp;&lt;/span&gt;&lt;font style=&quot;margin: 0px; padding: 0px; font-family: 默认字体; font-size: 14px; background-color: rgb(248, 249, 250);&quot; color=&quot;#a38200&quot;&gt;OnWebKitInitialized&lt;/font&gt;&lt;span style=&quot;color: rgb(0, 0, 0); font-family: 默认字体; font-size: 14px; background-color: rgb(248, 249, 250);&quot;&gt;() {}&lt;/span&gt;&lt;br style=&quot;margin: 0px; padding: 0px; color: rgb(0, 0, 0); font-family: 默认字体; font-size: 14px; background-color: rgb(248, 249, 250);&quot;&gt;&lt;span style=&quot;color: rgb(0, 0, 0); font-family: 默认字体; font-size: 14px; background-color: rgb(248, 249, 250);&quot;&gt;virtual void&amp;nbsp;&lt;/span&gt;&lt;font style=&quot;margin: 0px; padding: 0px; font-family: 默认字体; font-size: 14px; background-color: rgb(248, 249, 250);&quot; color=&quot;#a38200&quot;&gt;OnBrowserCreated&lt;/font&gt;&lt;span style=&quot;color: rgb(0, 0, 0); font-family: 默认字体; font-size: 14px; background-color: rgb(248, 249, 250);&quot;&gt;(CefRefPtr&amp;lt;CefBrowser&amp;gt; browser,&lt;/span&gt;&lt;br style=&quot;margin: 0px; padding: 0px; color: rgb(0, 0, 0); font-family: 默认字体; font-size: 14px; background-color: rgb(248, 249, 250);&quot;&gt;&lt;span style=&quot;margin: 0px; padding: 0px; color: rgb(0, 0, 0); font-family: 默认字体; font-size: 14px; background-color: rgb(248, 249, 250); white-space: pre;&quot;&gt; &lt;/span&gt;&lt;span style=&quot;color: rgb(0, 0, 0); font-family: 默认字体; font-size: 14px; background-color: rgb(248, 249, 250);&quot;&gt;CefRefPtr&amp;lt;CefDictionaryValue&amp;gt; extra_info) {}&lt;/span&gt;&lt;br style=&quot;margin: 0px; padding: 0px; color: rgb(0, 0, 0); font-family: 默认字体; font-size: 14px; background-color: rgb(248, 249, 250);&quot;&gt;&lt;span style=&quot;color: rgb(0, 0, 0); font-family: 默认字体; font-size: 14px; background-color: rgb(248, 249, 250);&quot;&gt;virtual void&amp;nbsp;&lt;/span&gt;&lt;font style=&quot;margin: 0px; padding: 0px; font-family: 默认字体; font-size: 14px; background-color: rgb(248, 249, 250);&quot; color=&quot;#a38200&quot;&gt;OnBrowserDestroyed&lt;/font&gt;&lt;span style=&quot;color: rgb(0, 0, 0); font-family: 默认字体; font-size: 14px; background-color: rgb(248, 249, 250);&quot;&gt;(CefRefPtr&amp;lt;CefBrowser&amp;gt; browser) {}&lt;/span&gt;&lt;br style=&quot;margin: 0px; padding: 0px; color: rgb(0, 0, 0); font-family: 默认字体; font-size: 14px; background-color: rgb(248, 249, 250);&quot;&gt;&lt;span style=&quot;color: rgb(0, 0, 0); font-family: 默认字体; font-size: 14px; background-color: rgb(248, 249, 250);&quot;&gt;virtual void&amp;nbsp;&lt;/span&gt;&lt;font style=&quot;margin: 0px; padding: 0px; font-family: 默认字体; font-size: 14px; background-color: rgb(248, 249, 250);&quot; color=&quot;#a38200&quot;&gt;OnContextCreated&lt;/font&gt;&lt;span style=&quot;color: rgb(0, 0, 0); font-family: 默认字体; font-size: 14px; background-color: rgb(248, 249, 250);&quot;&gt;(&lt;/span&gt;&lt;br style=&quot;margin: 0px; padding: 0px; color: rgb(0, 0, 0); font-family: 默认字体; font-size: 14px; background-color: rgb(248, 249, 250);&quot;&gt;&lt;span style=&quot;margin: 0px; padding: 0px; color: rgb(0, 0, 0); font-family: 默认字体; font-size: 14px; background-color: rgb(248, 249, 250); white-space: pre;&quot;&gt; &lt;/span&gt;&lt;span style=&quot;color: rgb(0, 0, 0); font-family: 默认字体; font-size: 14px; background-color: rgb(248, 249, 250);&quot;&gt;CefRefPtr&amp;lt;CefBrowser&amp;gt; browser,&lt;/span&gt;&lt;br style=&quot;margin: 0px; padding: 0px; color: rgb(0, 0, 0); font-family: 默认字体; font-size: 14px; background-color: rgb(248, 249, 250);&quot;&gt;&lt;span style=&quot;margin: 0px; padding: 0px; color: rgb(0, 0, 0); font-family: 默认字体; font-size: 14px; background-color: rgb(248, 249, 250); white-space: pre;&quot;&gt; &lt;/span&gt;&lt;span style=&quot;color: rgb(0, 0, 0); font-family: 默认字体; font-size: 14px; background-color: rgb(248, 249, 250);&quot;&gt;CefRefPtr&amp;lt;CefFrame&amp;gt; frame,&lt;/span&gt;&lt;br style=&quot;margin: 0px; padding: 0px; color: rgb(0, 0, 0); font-family: 默认字体; font-size: 14px; background-color: rgb(248, 249, 250);&quot;&gt;&lt;span style=&quot;margin: 0px; padding: 0px; color: rgb(0, 0, 0); font-family: 默认字体; font-size: 14px; background-color: rgb(248, 249, 250); white-space: pre;&quot;&gt; &lt;/span&gt;&lt;span style=&quot;color: rgb(0, 0, 0); font-family: 默认字体; font-size: 14px; background-color: rgb(248, 249, 250);&quot;&gt;CefRefPtr&amp;lt;CefV8Context&amp;gt; context) {}&lt;/span&gt;&lt;br style=&quot;margin: 0px; padding: 0px; color: rgb(0, 0, 0); font-family: 默认字体; font-size: 14px; background-color: rgb(248, 249, 250);&quot;&gt;&lt;span style=&quot;color: rgb(0, 0, 0); font-family: 默认字体; font-size: 14px; background-color: rgb(248, 249, 250);&quot;&gt;virtual void&amp;nbsp;&lt;/span&gt;&lt;font style=&quot;margin: 0px; padding: 0px; font-family: 默认字体; font-size: 14px; background-color: rgb(248, 249, 250);&quot; color=&quot;#a38200&quot;&gt;OnContextReleased&lt;/font&gt;&lt;span style=&quot;color: rgb(0, 0, 0); font-family: 默认字体; font-size: 14px; background-color: rgb(248, 249, 250);&quot;&gt;(&lt;/span&gt;&lt;br style=&quot;margin: 0px; padding: 0px; color: rgb(0, 0, 0); font-family: 默认字体; font-size: 14px; background-color: rgb(248, 249, 250);&quot;&gt;&lt;span style=&quot;margin: 0px; padding: 0px; color: rgb(0, 0, 0); font-family: 默认字体; font-size: 14px; background-color: rgb(248, 249, 250); white-space: pre;&quot;&gt; &lt;/span&gt;&lt;span style=&quot;color: rgb(0, 0, 0); font-family: 默认字体; font-size: 14px; background-color: rgb(248, 249, 250);&quot;&gt;CefRefPtr&amp;lt;CefBrowser&amp;gt; browser,&lt;/span&gt;&lt;br style=&quot;margin: 0px; padding: 0px; color: rgb(0, 0, 0); font-family: 默认字体; font-size: 14px; background-color: rgb(248, 249, 250);&quot;&gt;&lt;span style=&quot;margin: 0px; padding: 0px; color: rgb(0, 0, 0); font-family: 默认字体; font-size: 14px; background-color: rgb(248, 249, 250); white-space: pre;&quot;&gt; &lt;/span&gt;&lt;span style=&quot;color: rgb(0, 0, 0); font-family: 默认字体; font-size: 14px; background-color: rgb(248, 249, 250);&quot;&gt;CefRefPtr&amp;lt;CefFrame&amp;gt; frame,&lt;/span&gt;&lt;br style=&quot;margin: 0px; padding: 0px; color: rgb(0, 0, 0); font-family: 默认字体; font-size: 14px; background-color: rgb(248, 249, 250);&quot;&gt;&lt;span style=&quot;margin: 0px; padding: 0px; color: rgb(0, 0, 0); font-family: 默认字体; font-size: 14px; background-color: rgb(248, 249, 250); white-space: pre;&quot;&gt; &lt;/span&gt;&lt;span style=&quot;color: rgb(0, 0, 0); font-family: 默认字体; font-size: 14px; background-color: rgb(248, 249, 250);&quot;&gt;CefRefPtr&amp;lt;CefV8Context&amp;gt; context) {}&lt;/span&gt;&lt;br style=&quot;margin: 0px; padding: 0px; color: rgb(0, 0, 0); font-family: 默认字体; font-size: 14px; background-color: rgb(248, 249, 250);&quot;&gt;&lt;span style=&quot;color: rgb(0, 0, 0); font-family: 默认字体; font-size: 14px; background-color: rgb(248, 249, 250);&quot;&gt;virtual bool&amp;nbsp;&lt;/span&gt;&lt;font style=&quot;margin: 0px; padding: 0px; font-family: 默认字体; font-size: 14px; background-color: rgb(248, 249, 250);&quot; color=&quot;#a38200&quot;&gt;OnProcessMessageReceived&lt;/font&gt;&lt;span style=&quot;color: rgb(0, 0, 0); font-family: 默认字体; font-size: 14px; background-color: rgb(248, 249, 250);&quot;&gt;(&lt;/span&gt;&lt;br style=&quot;margin: 0px; padding: 0px; color: rgb(0, 0, 0); font-family: 默认字体; font-size: 14px; background-color: rgb(248, 249, 250);&quot;&gt;&lt;span style=&quot;margin: 0px; padding: 0px; color: rgb(0, 0, 0); font-family: 默认字体; font-size: 14px; background-color: rgb(248, 249, 250); white-space: pre;&quot;&gt; &lt;/span&gt;&lt;span style=&quot;color: rgb(0, 0, 0); font-family: 默认字体; font-size: 14px; background-color: rgb(248, 249, 250);&quot;&gt;CefRefPtr&amp;lt;CefBrowser&amp;gt; browser,&lt;/span&gt;&lt;br style=&quot;margin: 0px; padding: 0px; color: rgb(0, 0, 0); font-family: 默认字体; font-size: 14px; background-color: rgb(248, 249, 250);&quot;&gt;&lt;span style=&quot;margin: 0px; padding: 0px; color: rgb(0, 0, 0); font-family: 默认字体; font-size: 14px; background-color: rgb(248, 249, 250); white-space: pre;&quot;&gt; &lt;/span&gt;&lt;span style=&quot;color: rgb(0, 0, 0); font-family: 默认字体; font-size: 14px; background-color: rgb(248, 249, 250);&quot;&gt;CefRefPtr&amp;lt;CefFrame&amp;gt; frame,&lt;/span&gt;&lt;br style=&quot;margin: 0px; padding: 0px; color: rgb(0, 0, 0); font-family: 默认字体; font-size: 14px; background-color: rgb(248, 249, 250);&quot;&gt;&lt;span style=&quot;margin: 0px; padding: 0px; color: rgb(0, 0, 0); font-family: 默认字体; font-size: 14px; background-color: rgb(248, 249, 250); white-space: pre;&quot;&gt; &lt;/span&gt;&lt;span style=&quot;color: rgb(0, 0, 0); font-family: 默认字体; font-size: 14px; background-color: rgb(248, 249, 250);&quot;&gt;CefProcessId source_process,&lt;/span&gt;&lt;br style=&quot;margin: 0px; padding: 0px; color: rgb(0, 0, 0); font-family: 默认字体; font-size: 14px; background-color: rgb(248, 249, 250);&quot;&gt;&lt;span style=&quot;margin: 0px; padding: 0px; color: rgb(0, 0, 0); font-family: 默认字体; font-size: 14px; background-color: rgb(248, 249, 250); white-space: pre;&quot;&gt; &lt;/span&gt;&lt;span style=&quot;color: rgb(0, 0, 0); font-family: 默认字体; font-size: 14px; background-color: rgb(248, 249, 250);&quot;&gt;CefRefPtr&amp;lt;CefProcessMessage&amp;gt; message) {}&lt;/span&gt;&lt;br style=&quot;margin: 0px; padding: 0px; color: rgb(0, 0, 0); font-family: 默认字体; font-size: 14px; background-color: rgb(248, 249, 250);&quot;&gt;&lt;span style=&quot;color: rgb(0, 0, 0); font-family: 默认字体; font-size: 14px; background-color: rgb(248, 249, 250);&quot;&gt;virtual void&lt;/span&gt;&lt;font style=&quot;margin: 0px; padding: 0px; font-family: 默认字体; font-size: 14px; background-color: rgb(248, 249, 250);&quot; color=&quot;#a38200&quot;&gt;&amp;nbsp;OnLoadStart&lt;/font&gt;&lt;span style=&quot;color: rgb(0, 0, 0); font-family: 默认字体; font-size: 14px; background-color: rgb(248, 249, 250);&quot;&gt;(CefRefPtr&amp;lt;CefBrowser&amp;gt; browser,&lt;/span&gt;&lt;div style=&quot;margin: 0px; padding: 0px; color: rgb(0, 0, 0); font-family: 默认字体; font-size: 14px; background-color: rgb(248, 249, 250);&quot;&gt;&lt;span style=&quot;margin: 0px; padding: 0px; white-space: pre;&quot;&gt; &lt;/span&gt;CefRefPtr&amp;lt;CefFrame&amp;gt; frame, int transition_type) {}&lt;br style=&quot;margin: 0px; padding: 0px;&quot;&gt;virtual void&lt;font style=&quot;margin: 0px; padding: 0px;&quot; color=&quot;#a38200&quot;&gt;&amp;nbsp;OnLoadEnd&lt;/font&gt;(CefRefPtr&amp;lt;CefBrowser&amp;gt; browser,&amp;nbsp;&lt;/div&gt;&lt;div style=&quot;margin: 0px; padding: 0px; color: rgb(0, 0, 0); font-family: 默认字体; font-size: 14px; background-color: rgb(248, 249, 250);&quot;&gt;&lt;span style=&quot;margin: 0px; padding: 0px; white-space: pre;&quot;&gt; &lt;/span&gt;CefRefPtr&amp;lt;CefFrame&amp;gt; frame, int httpStatusCode) {}&lt;/div&gt;" style="text;strokeColor=none;fillColor=none;align=left;verticalAlign=top;spacingLeft=4;spacingRight=4;overflow=hidden;rotatable=0;points=[[0,0.5],[1,0.5]];portConstraint=eastwest;whiteSpace=wrap;html=1;" parent="9QPMXsnIaiFJWs5hB8Ml-125" vertex="1">
          <mxGeometry y="60" width="510" height="440" as="geometry" />
        </mxCell>
        <mxCell id="9QPMXsnIaiFJWs5hB8Ml-135" style="edgeStyle=orthogonalEdgeStyle;rounded=0;orthogonalLoop=1;jettySize=auto;html=1;exitX=0.5;exitY=0;exitDx=0;exitDy=0;entryX=1;entryY=0.5;entryDx=0;entryDy=0;" parent="1" source="9QPMXsnIaiFJWs5hB8Ml-130" target="9QPMXsnIaiFJWs5hB8Ml-76" edge="1">
          <mxGeometry relative="1" as="geometry" />
        </mxCell>
        <mxCell id="9QPMXsnIaiFJWs5hB8Ml-130" value="&lt;span style=&quot;color: rgb(0, 0, 0); font-family: 默认字体; font-size: 14px; text-wrap-mode: nowrap;&quot;&gt;YCCefV8Context&lt;/span&gt;" style="swimlane;fontStyle=1;align=center;verticalAlign=top;childLayout=stackLayout;horizontal=1;startSize=26;horizontalStack=0;resizeParent=1;resizeParentMax=0;resizeLast=0;collapsible=1;marginBottom=0;whiteSpace=wrap;html=1;fillColor=#1ba1e2;fontColor=#ffffff;strokeColor=#006EAF;" parent="1" vertex="1">
          <mxGeometry x="5300" y="1598" width="510" height="198" as="geometry" />
        </mxCell>
        <mxCell id="9QPMXsnIaiFJWs5hB8Ml-131" value="&lt;span style=&quot;color: rgb(0, 0, 0); font-family: 默认字体; font-size: 14px; text-wrap-mode: nowrap; background-color: rgb(248, 249, 250);&quot;&gt;CefRefPtr&amp;lt;CefV8Context&amp;gt; m_context;&lt;/span&gt;&lt;br style=&quot;margin: 0px; padding: 0px; color: rgb(0, 0, 0); font-family: 默认字体; font-size: 14px; text-wrap-mode: nowrap; background-color: rgb(248, 249, 250);&quot;&gt;&lt;span style=&quot;color: rgb(0, 0, 0); font-family: 默认字体; font-size: 14px; text-wrap-mode: nowrap; background-color: rgb(248, 249, 250);&quot;&gt;uint64_t m_frameId;&lt;/span&gt;&lt;br style=&quot;margin: 0px; padding: 0px; color: rgb(0, 0, 0); font-family: 默认字体; font-size: 14px; text-wrap-mode: nowrap; background-color: rgb(248, 249, 250);&quot;&gt;&lt;span style=&quot;color: rgb(0, 0, 0); font-family: 默认字体; font-size: 14px; text-wrap-mode: nowrap; background-color: rgb(248, 249, 250);&quot;&gt;int m_browserId;&lt;/span&gt;" style="text;strokeColor=none;fillColor=none;align=left;verticalAlign=top;spacingLeft=4;spacingRight=4;overflow=hidden;rotatable=0;points=[[0,0.5],[1,0.5]];portConstraint=eastwest;whiteSpace=wrap;html=1;" parent="9QPMXsnIaiFJWs5hB8Ml-130" vertex="1">
          <mxGeometry y="26" width="510" height="64" as="geometry" />
        </mxCell>
        <mxCell id="9QPMXsnIaiFJWs5hB8Ml-132" value="" style="line;strokeWidth=1;fillColor=none;align=left;verticalAlign=middle;spacingTop=-1;spacingLeft=3;spacingRight=3;rotatable=0;labelPosition=right;points=[];portConstraint=eastwest;strokeColor=inherit;" parent="9QPMXsnIaiFJWs5hB8Ml-130" vertex="1">
          <mxGeometry y="90" width="510" height="8" as="geometry" />
        </mxCell>
        <mxCell id="9QPMXsnIaiFJWs5hB8Ml-133" value="&lt;span style=&quot;color: rgb(0, 0, 0); font-family: 默认字体; font-size: 14px; text-wrap-mode: nowrap; background-color: rgb(248, 249, 250);&quot;&gt;+ :YCCefV8Context(uint64_t frameId, CefRefPtr&amp;lt;CefV8Context&amp;gt; context)&lt;/span&gt;" style="text;strokeColor=none;fillColor=none;align=left;verticalAlign=top;spacingLeft=4;spacingRight=4;overflow=hidden;rotatable=0;points=[[0,0.5],[1,0.5]];portConstraint=eastwest;whiteSpace=wrap;html=1;" parent="9QPMXsnIaiFJWs5hB8Ml-130" vertex="1">
          <mxGeometry y="98" width="510" height="100" as="geometry" />
        </mxCell>
        <mxCell id="9QPMXsnIaiFJWs5hB8Ml-134" style="edgeStyle=orthogonalEdgeStyle;rounded=0;orthogonalLoop=1;jettySize=auto;html=1;exitX=1;exitY=0.5;exitDx=0;exitDy=0;" parent="1" source="9QPMXsnIaiFJWs5hB8Ml-120" target="9QPMXsnIaiFJWs5hB8Ml-130" edge="1">
          <mxGeometry relative="1" as="geometry" />
        </mxCell>
        <mxCell id="9QPMXsnIaiFJWs5hB8Ml-137" value="&lt;h1 style=&quot;margin-top: 0px;&quot;&gt;&lt;span style=&quot;color: rgb(0, 0, 0); font-family: 默认字体; font-size: 14px; font-weight: 400; background-color: rgb(248, 249, 250);&quot;&gt;g_extensions[] = { { &quot;CefV8DelegateHandler::&lt;/span&gt;&lt;font style=&quot;margin: 0px; padding: 0px; font-family: 默认字体; font-size: 14px; font-weight: 400; background-color: rgb(248, 249, 250);&quot; color=&quot;#b86014&quot;&gt;kExtension&lt;/font&gt;&lt;span style=&quot;color: rgb(0, 0, 0); font-family: 默认字体; font-size: 14px; font-weight: 400; background-color: rgb(248, 249, 250);&quot;&gt;&quot;, CefV8DelegateHandler::kExtension },&lt;/span&gt;&lt;br style=&quot;margin: 0px; padding: 0px; color: rgb(0, 0, 0); font-family: 默认字体; font-size: 14px; font-weight: 400; background-color: rgb(248, 249, 250);&quot;&gt;&lt;span style=&quot;color: rgb(0, 0, 0); font-family: 默认字体; font-size: 14px; font-weight: 400; background-color: rgb(248, 249, 250);&quot;&gt;{ &quot;YCCefV8Context::&lt;/span&gt;&lt;font style=&quot;margin: 0px; padding: 0px; font-family: 默认字体; font-size: 14px; font-weight: 400; background-color: rgb(248, 249, 250);&quot; color=&quot;#b86014&quot;&gt;kExtensionOperator&lt;/font&gt;&lt;span style=&quot;color: rgb(0, 0, 0); font-family: 默认字体; font-size: 14px; font-weight: 400; background-color: rgb(248, 249, 250);&quot;&gt;&quot;, YCCefV8Context::kExtensionOperator },&lt;/span&gt;&lt;br style=&quot;margin: 0px; padding: 0px; color: rgb(0, 0, 0); font-family: 默认字体; font-size: 14px; font-weight: 400; background-color: rgb(248, 249, 250);&quot;&gt;&lt;span style=&quot;color: rgb(0, 0, 0); font-family: 默认字体; font-size: 14px; font-weight: 400; background-color: rgb(248, 249, 250);&quot;&gt;{ &quot;YCCefV8Promise:&lt;/span&gt;&lt;font style=&quot;margin: 0px; padding: 0px; font-family: 默认字体; font-size: 14px; font-weight: 400; background-color: rgb(248, 249, 250);&quot; color=&quot;#b86014&quot;&gt;:kExtension&lt;/font&gt;&lt;span style=&quot;color: rgb(0, 0, 0); font-family: 默认字体; font-size: 14px; font-weight: 400; background-color: rgb(248, 249, 250);&quot;&gt;&quot;, YCCefV8Promise::kExtension },&lt;/span&gt;&lt;br style=&quot;margin: 0px; padding: 0px; color: rgb(0, 0, 0); font-family: 默认字体; font-size: 14px; font-weight: 400; background-color: rgb(248, 249, 250);&quot;&gt;&lt;span style=&quot;color: rgb(0, 0, 0); font-family: 默认字体; font-size: 14px; font-weight: 400; background-color: rgb(248, 249, 250);&quot;&gt;{ &quot;YCCefV8Context::&lt;/span&gt;&lt;font style=&quot;margin: 0px; padding: 0px; font-family: 默认字体; font-size: 14px; font-weight: 400; background-color: rgb(248, 249, 250);&quot; color=&quot;#b86014&quot;&gt;&lt;b style=&quot;margin: 0px; padding: 0px;&quot;&gt;kConnectSignal&lt;/b&gt;&lt;/font&gt;&lt;span style=&quot;color: rgb(0, 0, 0); font-family: 默认字体; font-size: 14px; font-weight: 400; background-color: rgb(248, 249, 250);&quot;&gt;&quot;, YCCefV8Context::kConnectSignal, },&lt;/span&gt;&lt;br style=&quot;margin: 0px; padding: 0px; color: rgb(0, 0, 0); font-family: 默认字体; font-size: 14px; font-weight: 400; background-color: rgb(248, 249, 250);&quot;&gt;&lt;span style=&quot;color: rgb(0, 0, 0); font-family: 默认字体; font-size: 14px; font-weight: 400; background-color: rgb(248, 249, 250);&quot;&gt;{ &quot;YCCefV8Context:&lt;/span&gt;&lt;font style=&quot;margin: 0px; padding: 0px; font-family: 默认字体; font-size: 14px; font-weight: 400; background-color: rgb(248, 249, 250);&quot; color=&quot;#b86014&quot;&gt;:&lt;b style=&quot;margin: 0px; padding: 0px;&quot;&gt;kOninitSdk&lt;/b&gt;&lt;/font&gt;&lt;span style=&quot;color: rgb(0, 0, 0); font-family: 默认字体; font-size: 14px; font-weight: 400; background-color: rgb(248, 249, 250);&quot;&gt;&quot;, YCCefV8Context::kOninitSdk, },&lt;/span&gt;&lt;br style=&quot;margin: 0px; padding: 0px; color: rgb(0, 0, 0); font-family: 默认字体; font-size: 14px; font-weight: 400; background-color: rgb(248, 249, 250);&quot;&gt;&lt;span style=&quot;color: rgb(0, 0, 0); font-family: 默认字体; font-size: 14px; font-weight: 400; background-color: rgb(248, 249, 250);&quot;&gt;{ &quot;YCCefV8Context::&lt;/span&gt;&lt;font style=&quot;margin: 0px; padding: 0px; font-family: 默认字体; font-size: 14px; font-weight: 400; background-color: rgb(248, 249, 250);&quot; color=&quot;#b86014&quot;&gt;kFixLocalStorage&lt;/font&gt;&lt;span style=&quot;color: rgb(0, 0, 0); font-family: 默认字体; font-size: 14px; font-weight: 400; background-color: rgb(248, 249, 250);&quot;&gt;&quot;, YCCefV8Context::kFixLocalStorage, },&lt;/span&gt;&lt;/h1&gt;" style="text;html=1;whiteSpace=wrap;overflow=hidden;rounded=0;spacingTop=2;spacing=8;" parent="1" vertex="1">
          <mxGeometry x="5360" y="1980" width="590" height="240" as="geometry" />
        </mxCell>
        <mxCell id="9QPMXsnIaiFJWs5hB8Ml-138" style="edgeStyle=orthogonalEdgeStyle;rounded=0;orthogonalLoop=1;jettySize=auto;html=1;exitX=1;exitY=0.5;exitDx=0;exitDy=0;dashed=1;dashPattern=8 8;" parent="1" source="9QPMXsnIaiFJWs5hB8Ml-122" target="9QPMXsnIaiFJWs5hB8Ml-137" edge="1">
          <mxGeometry relative="1" as="geometry" />
        </mxCell>
        <mxCell id="9QPMXsnIaiFJWs5hB8Ml-139" value="&lt;span style=&quot;color: rgb(0, 0, 0); font-family: 默认字体; font-size: 14px; background-color: rgb(255, 255, 255);&quot;&gt;CefRegisterExtension&lt;/span&gt;" style="edgeLabel;html=1;align=center;verticalAlign=middle;resizable=0;points=[];" parent="9QPMXsnIaiFJWs5hB8Ml-138" vertex="1" connectable="0">
          <mxGeometry x="-0.1203" y="-2" relative="1" as="geometry">
            <mxPoint as="offset" />
          </mxGeometry>
        </mxCell>
        <mxCell id="9QPMXsnIaiFJWs5hB8Ml-140" value="&lt;span style=&quot;color: rgb(0, 0, 0); font-family: 默认字体; font-size: 14px; text-wrap-mode: nowrap;&quot;&gt;YYCefChannelApp&lt;/span&gt;" style="swimlane;fontStyle=1;align=center;verticalAlign=top;childLayout=stackLayout;horizontal=1;startSize=26;horizontalStack=0;resizeParent=1;resizeParentMax=0;resizeLast=0;collapsible=1;marginBottom=0;whiteSpace=wrap;html=1;fillColor=light-dark(#E51400,#FF3333);fontColor=#ffffff;strokeColor=#B20000;paddingLeft=10;" parent="1" vertex="1">
          <mxGeometry x="1790" y="2300" width="510" height="690" as="geometry" />
        </mxCell>
        <mxCell id="9QPMXsnIaiFJWs5hB8Ml-141" value="&lt;span style=&quot;color: rgb(0, 0, 0); font-family: 默认字体; font-size: 14px; text-wrap-mode: nowrap; background-color: rgb(248, 249, 250);&quot;&gt;CefRefPtr&amp;lt;CefApp&amp;gt; m_cefApp&lt;/span&gt;&lt;br style=&quot;margin: 0px; padding: 0px; color: rgb(0, 0, 0); font-family: 默认字体; font-size: 14px; text-wrap-mode: nowrap; background-color: rgb(248, 249, 250);&quot;&gt;&lt;span style=&quot;color: rgb(0, 0, 0); font-family: 默认字体; font-size: 14px; text-wrap-mode: nowrap; background-color: rgb(248, 249, 250);&quot;&gt;QPointer&amp;lt;YYCefCoreSignalObject&amp;gt; m_signalObject&lt;/span&gt;&lt;br style=&quot;margin: 0px; padding: 0px; color: rgb(0, 0, 0); font-family: 默认字体; font-size: 14px; text-wrap-mode: nowrap; background-color: rgb(248, 249, 250);&quot;&gt;&lt;br style=&quot;margin: 0px; padding: 0px; color: rgb(0, 0, 0); font-family: 默认字体; font-size: 14px; text-wrap-mode: nowrap; background-color: rgb(248, 249, 250);&quot;&gt;&lt;span style=&quot;color: rgb(0, 0, 0); font-family: 默认字体; font-size: 14px; text-wrap-mode: nowrap; background-color: rgb(248, 249, 250);&quot;&gt;std::set&amp;lt;YYCefBrowser*&amp;gt; m_browsers;&lt;/span&gt;&lt;br style=&quot;margin: 0px; padding: 0px; color: rgb(0, 0, 0); font-family: 默认字体; font-size: 14px; text-wrap-mode: nowrap; background-color: rgb(248, 249, 250);&quot;&gt;&lt;span style=&quot;color: rgb(0, 0, 0); font-family: 默认字体; font-size: 14px; text-wrap-mode: nowrap; background-color: rgb(248, 249, 250);&quot;&gt;std::map&amp;lt;int, QSharedPointer&amp;lt;YYCefBrowser&amp;gt;&amp;gt; m_popupBrowsers;&lt;/span&gt;&lt;br style=&quot;margin: 0px; padding: 0px; color: rgb(0, 0, 0); font-family: 默认字体; font-size: 14px; text-wrap-mode: nowrap; background-color: rgb(248, 249, 250);&quot;&gt;&lt;span style=&quot;color: rgb(0, 0, 0); font-family: 默认字体; font-size: 14px; text-wrap-mode: nowrap; background-color: rgb(248, 249, 250);&quot;&gt;std::list&amp;lt;CefRefPtr&amp;lt;CefBrowser&amp;gt;&amp;gt; m_cefbrowsers;&lt;/span&gt;&lt;br style=&quot;margin: 0px; padding: 0px; color: rgb(0, 0, 0); font-family: 默认字体; font-size: 14px; text-wrap-mode: nowrap; background-color: rgb(248, 249, 250);&quot;&gt;&lt;br style=&quot;margin: 0px; padding: 0px; color: rgb(0, 0, 0); font-family: 默认字体; font-size: 14px; text-wrap-mode: nowrap; background-color: rgb(248, 249, 250);&quot;&gt;&lt;span style=&quot;color: rgb(0, 0, 0); font-family: 默认字体; font-size: 14px; text-wrap-mode: nowrap; background-color: rgb(248, 249, 250);&quot;&gt;std::set&amp;lt;client::BrowserDelegate*&amp;gt; m_browserDelegates;&lt;/span&gt;&lt;br style=&quot;margin: 0px; padding: 0px; color: rgb(0, 0, 0); font-family: 默认字体; font-size: 14px; text-wrap-mode: nowrap; background-color: rgb(248, 249, 250);&quot;&gt;&lt;span style=&quot;color: rgb(0, 0, 0); font-family: 默认字体; font-size: 14px; text-wrap-mode: nowrap; background-color: rgb(248, 249, 250);&quot;&gt;std::set&amp;lt;client::RenderDelegate*&amp;gt; m_renderDelegates;&lt;/span&gt;" style="text;strokeColor=none;fillColor=none;align=left;verticalAlign=top;spacingLeft=4;spacingRight=4;overflow=hidden;rotatable=0;points=[[0,0.5],[1,0.5]];portConstraint=eastwest;whiteSpace=wrap;html=1;" parent="9QPMXsnIaiFJWs5hB8Ml-140" vertex="1">
          <mxGeometry y="26" width="510" height="164" as="geometry" />
        </mxCell>
        <mxCell id="9QPMXsnIaiFJWs5hB8Ml-142" value="" style="line;strokeWidth=1;fillColor=none;align=left;verticalAlign=middle;spacingTop=-1;spacingLeft=3;spacingRight=3;rotatable=0;labelPosition=right;points=[];portConstraint=eastwest;strokeColor=inherit;" parent="9QPMXsnIaiFJWs5hB8Ml-140" vertex="1">
          <mxGeometry y="190" width="510" height="8" as="geometry" />
        </mxCell>
        <mxCell id="9QPMXsnIaiFJWs5hB8Ml-144" value="&lt;h1 style=&quot;margin-top: 0px;&quot;&gt;&lt;font style=&quot;font-size: 12px; font-weight: 400;&quot;&gt;&lt;span style=&quot;color: rgb(0, 0, 0); font-family: 默认字体; font-size: 14px; background-color: rgb(248, 249, 250);&quot;&gt;static YYCefChannelApp*&amp;nbsp;&lt;/span&gt;&lt;font style=&quot;margin: 0px; padding: 0px; font-family: 默认字体; font-size: 14px; background-color: rgb(248, 249, 250); color: light-dark(rgb(0, 0, 0), rgb(255, 181, 112));&quot;&gt;&lt;b style=&quot;margin: 0px; padding: 0px;&quot;&gt;getInstance&lt;/b&gt;&lt;/font&gt;&lt;span style=&quot;color: rgb(0, 0, 0); font-family: 默认字体; font-size: 14px; background-color: rgb(248, 249, 250);&quot;&gt;()&lt;/span&gt;&lt;/font&gt;&lt;/h1&gt;&lt;h1 style=&quot;margin-top: 0px;&quot;&gt;&lt;span style=&quot;background-color: light-dark(rgb(248, 249, 250), rgb(22, 23, 24)); color: light-dark(rgb(0, 0, 0), rgb(255, 255, 255)); font-family: 默认字体; font-size: 14px; font-weight: 400;&quot;&gt;QSharedPointer&amp;lt;YYCefBrowser&amp;gt; &lt;/span&gt;&lt;span style=&quot;background-color: light-dark(rgb(248, 249, 250), rgb(22, 23, 24)); font-family: 默认字体; font-size: 14px; font-weight: 400;&quot;&gt;&lt;font style=&quot;color: light-dark(rgb(0, 0, 0), rgb(255, 181, 112));&quot;&gt;createBrowser&lt;/font&gt;&lt;/span&gt;&lt;span style=&quot;background-color: light-dark(rgb(248, 249, 250), rgb(22, 23, 24)); color: light-dark(rgb(0, 0, 0), rgb(255, 255, 255)); font-family: 默认字体; font-size: 14px; font-weight: 400;&quot;&gt;(const char* url, const &lt;span style=&quot;white-space: pre;&quot;&gt;&#x9;&lt;/span&gt;BrowserWindowOptions&amp;amp; param);&lt;/span&gt;&lt;/h1&gt;&lt;h1 style=&quot;margin-top: 0px;&quot;&gt;&lt;span style=&quot;font-size: 14px; font-family: 默认字体; color: light-dark(rgb(0, 0, 0), rgb(255, 255, 255)); background-color: light-dark(rgb(248, 249, 250), rgb(22, 23, 24)); font-weight: 400;&quot;&gt;QSharedPointer&amp;lt;YYCefBrowser&amp;gt; &lt;/span&gt;&lt;span style=&quot;font-size: 14px; font-family: 默认字体; background-color: light-dark(rgb(248, 249, 250), rgb(22, 23, 24)); font-weight: 400;&quot;&gt;&lt;font style=&quot;color: light-dark(rgb(0, 0, 0), rgb(255, 181, 112));&quot;&gt;createPopupBrowser&lt;/font&gt;&lt;/span&gt;&lt;span style=&quot;font-size: 14px; font-family: 默认字体; color: light-dark(rgb(0, 0, 0), rgb(255, 255, 255)); background-color: light-dark(rgb(248, 249, 250), rgb(22, 23, 24)); font-weight: 400;&quot;&gt;(const char* url, &lt;/span&gt;&lt;span style=&quot;font-size: 14px; font-family: 默认字体; color: light-dark(rgb(0, 0, 0), rgb(255, 255, 255)); background-color: light-dark(rgb(248, 249, 250), rgb(22, 23, 24)); font-weight: 400; white-space: pre;&quot;&gt;&#x9;&lt;/span&gt;&lt;span style=&quot;font-size: 14px; font-family: 默认字体; color: light-dark(rgb(0, 0, 0), rgb(255, 255, 255)); background-color: light-dark(rgb(248, 249, 250), rgb(22, 23, 24)); font-weight: 400;&quot;&gt;const BrowserWindowOptions&amp;amp; param);&lt;/span&gt;&lt;/h1&gt;&lt;h1 style=&quot;margin-top: 0px;&quot;&gt;&lt;span style=&quot;font-size: 14px; font-family: 默认字体; color: light-dark(rgb(0, 0, 0), rgb(255, 255, 255)); background-color: light-dark(rgb(248, 249, 250), rgb(22, 23, 24)); font-weight: 400;&quot;&gt;bool &lt;/span&gt;&lt;span style=&quot;font-size: 14px; font-family: 默认字体; background-color: light-dark(rgb(248, 249, 250), rgb(22, 23, 24)); font-weight: 400;&quot;&gt;&lt;font style=&quot;color: light-dark(rgb(0, 0, 0), rgb(255, 181, 112));&quot;&gt;initCef&lt;/font&gt;&lt;/span&gt;&lt;span style=&quot;font-size: 14px; font-family: 默认字体; color: light-dark(rgb(0, 0, 0), rgb(255, 255, 255)); background-color: light-dark(rgb(248, 249, 250), rgb(22, 23, 24)); font-weight: 400;&quot;&gt;(const YYCefBrowserCreator::Options&amp;amp; options)&lt;/span&gt;&lt;/h1&gt;&lt;h1 style=&quot;margin-top: 0px;&quot;&gt;&lt;div style=&quot;&quot;&gt;&lt;span style=&quot;background-color: rgb(248, 249, 250);&quot;&gt;&lt;div style=&quot;&quot;&gt;&lt;font face=&quot;默认字体&quot;&gt;&lt;span style=&quot;font-size: 14px; font-weight: 400;&quot;&gt;QSharedPointer&amp;lt;YYCefBrowser&amp;gt; &lt;font style=&quot;color: light-dark(rgb(0, 0, 0), rgb(255, 181, 112));&quot;&gt;getCefRootWindow&lt;/font&gt;()&lt;/span&gt;&lt;/font&gt;&lt;/div&gt;&lt;div style=&quot;&quot;&gt;&lt;font face=&quot;默认字体&quot;&gt;&lt;span style=&quot;font-size: 14px; font-weight: 400;&quot;&gt;&lt;br&gt;&lt;/span&gt;&lt;/font&gt;&lt;/div&gt;&lt;div style=&quot;font-size: 12px; font-weight: 400;&quot;&gt;&lt;font face=&quot;默认字体&quot;&gt;&lt;span style=&quot;font-size: 14px;&quot;&gt;&lt;div&gt;&amp;nbsp; &amp;nbsp; void &lt;font style=&quot;color: light-dark(rgb(0, 0, 0), rgb(255, 181, 112));&quot;&gt;createCefWeb&lt;/font&gt;(const QString&amp;amp; url, const BrowserWindowOptions&amp;amp; createParams);&lt;/div&gt;&lt;div&gt;&lt;br&gt;&lt;/div&gt;&lt;div&gt;&amp;nbsp; &amp;nbsp; void &lt;font style=&quot;color: light-dark(rgb(0, 0, 0), rgb(255, 181, 112));&quot;&gt;closeCefWeb&lt;/font&gt;();&lt;/div&gt;&lt;div&gt;&lt;br&gt;&lt;/div&gt;&lt;div&gt;&amp;nbsp; &amp;nbsp; static bool isBrowser();&lt;/div&gt;&lt;div&gt;&lt;br&gt;&lt;/div&gt;&lt;div&gt;&amp;nbsp; &amp;nbsp; int &lt;font style=&quot;color: light-dark(rgb(0, 0, 0), rgb(255, 181, 112));&quot;&gt;exec&lt;/font&gt;();&lt;/div&gt;&lt;div&gt;&lt;br&gt;&lt;/div&gt;&lt;div&gt;&amp;nbsp; &amp;nbsp; HWND rootWindow();&lt;/div&gt;&lt;/span&gt;&lt;/font&gt;&lt;/div&gt;&lt;/span&gt;&lt;/div&gt;&lt;/h1&gt;" style="text;html=1;whiteSpace=wrap;overflow=hidden;rounded=0;" parent="9QPMXsnIaiFJWs5hB8Ml-140" vertex="1">
          <mxGeometry y="198" width="510" height="492" as="geometry" />
        </mxCell>
        <mxCell id="9QPMXsnIaiFJWs5hB8Ml-176" style="edgeStyle=orthogonalEdgeStyle;rounded=0;orthogonalLoop=1;jettySize=auto;html=1;exitX=0.5;exitY=0;exitDx=0;exitDy=0;" parent="1" source="9QPMXsnIaiFJWs5hB8Ml-146" target="9QPMXsnIaiFJWs5hB8Ml-150" edge="1">
          <mxGeometry relative="1" as="geometry" />
        </mxCell>
        <mxCell id="9QPMXsnIaiFJWs5hB8Ml-146" value="&lt;span style=&quot;color: rgb(0, 0, 0); font-family: 默认字体; font-size: 14px; text-wrap-mode: nowrap;&quot;&gt;Application&lt;/span&gt;" style="swimlane;fontStyle=1;align=center;verticalAlign=top;childLayout=stackLayout;horizontal=1;startSize=26;horizontalStack=0;resizeParent=1;resizeParentMax=0;resizeLast=0;collapsible=1;marginBottom=0;whiteSpace=wrap;html=1;fillColor=#1ba1e2;fontColor=#ffffff;strokeColor=#006EAF;" parent="1" vertex="1">
          <mxGeometry x="360" y="2490" width="510" height="220" as="geometry" />
        </mxCell>
        <mxCell id="9QPMXsnIaiFJWs5hB8Ml-147" value="+ field: type" style="text;strokeColor=none;fillColor=none;align=left;verticalAlign=top;spacingLeft=4;spacingRight=4;overflow=hidden;rotatable=0;points=[[0,0.5],[1,0.5]];portConstraint=eastwest;whiteSpace=wrap;html=1;" parent="9QPMXsnIaiFJWs5hB8Ml-146" vertex="1">
          <mxGeometry y="26" width="510" height="26" as="geometry" />
        </mxCell>
        <mxCell id="9QPMXsnIaiFJWs5hB8Ml-148" value="" style="line;strokeWidth=1;fillColor=none;align=left;verticalAlign=middle;spacingTop=-1;spacingLeft=3;spacingRight=3;rotatable=0;labelPosition=right;points=[];portConstraint=eastwest;strokeColor=inherit;" parent="9QPMXsnIaiFJWs5hB8Ml-146" vertex="1">
          <mxGeometry y="52" width="510" height="8" as="geometry" />
        </mxCell>
        <mxCell id="9QPMXsnIaiFJWs5hB8Ml-149" value="&lt;font face=&quot;默认字体&quot; color=&quot;#ededed&quot;&gt;&lt;span style=&quot;font-size: 14px; background-color: rgb(22, 23, 24);&quot;&gt;+&lt;/span&gt;&lt;/font&gt;" style="text;strokeColor=none;fillColor=none;align=left;verticalAlign=top;spacingLeft=4;spacingRight=4;overflow=hidden;rotatable=0;points=[[0,0.5],[1,0.5]];portConstraint=eastwest;whiteSpace=wrap;html=1;" parent="9QPMXsnIaiFJWs5hB8Ml-146" vertex="1">
          <mxGeometry y="60" width="510" height="160" as="geometry" />
        </mxCell>
        <mxCell id="9QPMXsnIaiFJWs5hB8Ml-150" value="&lt;span style=&quot;color: rgb(0, 0, 0); font-family: 默认字体; font-size: 14px; text-wrap-mode: nowrap;&quot;&gt;QApplication&lt;/span&gt;" style="swimlane;fontStyle=1;align=center;verticalAlign=top;childLayout=stackLayout;horizontal=1;startSize=26;horizontalStack=0;resizeParent=1;resizeParentMax=0;resizeLast=0;collapsible=1;marginBottom=0;whiteSpace=wrap;html=1;fillColor=#60a917;fontColor=#ffffff;strokeColor=#2D7600;" parent="1" vertex="1">
          <mxGeometry x="360" y="2160" width="510" height="216" as="geometry" />
        </mxCell>
        <mxCell id="9QPMXsnIaiFJWs5hB8Ml-151" value="+ field: type" style="text;strokeColor=none;fillColor=none;align=left;verticalAlign=top;spacingLeft=4;spacingRight=4;overflow=hidden;rotatable=0;points=[[0,0.5],[1,0.5]];portConstraint=eastwest;whiteSpace=wrap;html=1;" parent="9QPMXsnIaiFJWs5hB8Ml-150" vertex="1">
          <mxGeometry y="26" width="510" height="22" as="geometry" />
        </mxCell>
        <mxCell id="9QPMXsnIaiFJWs5hB8Ml-152" value="" style="line;strokeWidth=1;fillColor=none;align=left;verticalAlign=middle;spacingTop=-1;spacingLeft=3;spacingRight=3;rotatable=0;labelPosition=right;points=[];portConstraint=eastwest;strokeColor=inherit;" parent="9QPMXsnIaiFJWs5hB8Ml-150" vertex="1">
          <mxGeometry y="48" width="510" height="8" as="geometry" />
        </mxCell>
        <mxCell id="9QPMXsnIaiFJWs5hB8Ml-153" value="&lt;font face=&quot;默认字体&quot; color=&quot;#ededed&quot;&gt;&lt;span style=&quot;font-size: 14px; background-color: rgb(22, 23, 24);&quot;&gt;+&lt;/span&gt;&lt;/font&gt;" style="text;strokeColor=none;fillColor=none;align=left;verticalAlign=top;spacingLeft=4;spacingRight=4;overflow=hidden;rotatable=0;points=[[0,0.5],[1,0.5]];portConstraint=eastwest;whiteSpace=wrap;html=1;" parent="9QPMXsnIaiFJWs5hB8Ml-150" vertex="1">
          <mxGeometry y="56" width="510" height="160" as="geometry" />
        </mxCell>
        <mxCell id="9QPMXsnIaiFJWs5hB8Ml-166" value="Application app" style="shape=umlLifeline;perimeter=lifelinePerimeter;whiteSpace=wrap;html=1;container=1;dropTarget=0;collapsible=0;recursiveResize=0;outlineConnect=0;portConstraint=eastwest;newEdgeStyle={&quot;curved&quot;:0,&quot;rounded&quot;:0};size=40;" parent="1" vertex="1">
          <mxGeometry x="791" y="3740" width="170" height="1210" as="geometry" />
        </mxCell>
        <mxCell id="9QPMXsnIaiFJWs5hB8Ml-171" value="" style="html=1;points=[[0,0,0,0,5],[0,1,0,0,-5],[1,0,0,0,5],[1,1,0,0,-5]];perimeter=orthogonalPerimeter;outlineConnect=0;targetShapes=umlLifeline;portConstraint=eastwest;newEdgeStyle={&quot;curved&quot;:0,&quot;rounded&quot;:0};" parent="9QPMXsnIaiFJWs5hB8Ml-166" vertex="1">
          <mxGeometry x="80" y="233" width="10" height="467" as="geometry" />
        </mxCell>
        <mxCell id="9QPMXsnIaiFJWs5hB8Ml-174" value="" style="html=1;points=[[0,0,0,0,5],[0,1,0,0,-5],[1,0,0,0,5],[1,1,0,0,-5]];perimeter=orthogonalPerimeter;outlineConnect=0;targetShapes=umlLifeline;portConstraint=eastwest;newEdgeStyle={&quot;curved&quot;:0,&quot;rounded&quot;:0};" parent="9QPMXsnIaiFJWs5hB8Ml-166" vertex="1">
          <mxGeometry x="80" y="770" width="10" height="80" as="geometry" />
        </mxCell>
        <mxCell id="9QPMXsnIaiFJWs5hB8Ml-184" value="" style="html=1;points=[[0,0,0,0,5],[0,1,0,0,-5],[1,0,0,0,5],[1,1,0,0,-5]];perimeter=orthogonalPerimeter;outlineConnect=0;targetShapes=umlLifeline;portConstraint=eastwest;newEdgeStyle={&quot;curved&quot;:0,&quot;rounded&quot;:0};" parent="9QPMXsnIaiFJWs5hB8Ml-166" vertex="1">
          <mxGeometry x="85" y="297" width="10" height="243" as="geometry" />
        </mxCell>
        <mxCell id="9QPMXsnIaiFJWs5hB8Ml-185" value="init" style="html=1;align=left;spacingLeft=2;endArrow=block;rounded=0;edgeStyle=orthogonalEdgeStyle;curved=0;rounded=0;" parent="9QPMXsnIaiFJWs5hB8Ml-166" target="9QPMXsnIaiFJWs5hB8Ml-184" edge="1">
          <mxGeometry x="-0.0105" relative="1" as="geometry">
            <mxPoint x="90" y="277" as="sourcePoint" />
            <Array as="points">
              <mxPoint x="120" y="307" />
            </Array>
            <mxPoint as="offset" />
          </mxGeometry>
        </mxCell>
        <mxCell id="9QPMXsnIaiFJWs5hB8Ml-186" value="" style="html=1;points=[[0,0,0,0,5],[0,1,0,0,-5],[1,0,0,0,5],[1,1,0,0,-5]];perimeter=orthogonalPerimeter;outlineConnect=0;targetShapes=umlLifeline;portConstraint=eastwest;newEdgeStyle={&quot;curved&quot;:0,&quot;rounded&quot;:0};" parent="9QPMXsnIaiFJWs5hB8Ml-166" vertex="1">
          <mxGeometry x="90" y="373" width="10" height="37" as="geometry" />
        </mxCell>
        <mxCell id="9QPMXsnIaiFJWs5hB8Ml-187" value="_handleDefault" style="html=1;align=left;spacingLeft=2;endArrow=block;rounded=0;edgeStyle=orthogonalEdgeStyle;curved=0;rounded=0;" parent="9QPMXsnIaiFJWs5hB8Ml-166" target="9QPMXsnIaiFJWs5hB8Ml-186" edge="1">
          <mxGeometry relative="1" as="geometry">
            <mxPoint x="95" y="353" as="sourcePoint" />
            <Array as="points">
              <mxPoint x="125" y="383" />
            </Array>
          </mxGeometry>
        </mxCell>
        <mxCell id="9QPMXsnIaiFJWs5hB8Ml-168" value="main.cpp" style="shape=umlLifeline;perimeter=lifelinePerimeter;whiteSpace=wrap;html=1;container=1;dropTarget=0;collapsible=0;recursiveResize=0;outlineConnect=0;portConstraint=eastwest;newEdgeStyle={&quot;curved&quot;:0,&quot;rounded&quot;:0};" parent="1" vertex="1">
          <mxGeometry x="462" y="3740" width="170" height="1230" as="geometry" />
        </mxCell>
        <mxCell id="9QPMXsnIaiFJWs5hB8Ml-169" value="" style="html=1;points=[[0,0,0,0,5],[0,1,0,0,-5],[1,0,0,0,5],[1,1,0,0,-5]];perimeter=orthogonalPerimeter;outlineConnect=0;targetShapes=umlLifeline;portConstraint=eastwest;newEdgeStyle={&quot;curved&quot;:0,&quot;rounded&quot;:0};" parent="9QPMXsnIaiFJWs5hB8Ml-168" vertex="1">
          <mxGeometry x="80" y="160" width="10" height="740" as="geometry" />
        </mxCell>
        <mxCell id="9QPMXsnIaiFJWs5hB8Ml-170" value="mainEntry" style="html=1;align=left;spacingLeft=2;endArrow=block;rounded=0;edgeStyle=orthogonalEdgeStyle;curved=0;rounded=0;" parent="9QPMXsnIaiFJWs5hB8Ml-168" target="9QPMXsnIaiFJWs5hB8Ml-169" edge="1">
          <mxGeometry relative="1" as="geometry">
            <mxPoint x="90" y="140" as="sourcePoint" />
            <Array as="points">
              <mxPoint x="120" y="170" />
            </Array>
          </mxGeometry>
        </mxCell>
        <mxCell id="9QPMXsnIaiFJWs5hB8Ml-172" value="start" style="html=1;verticalAlign=bottom;startArrow=oval;endArrow=block;startSize=8;curved=0;rounded=0;entryX=0;entryY=0;entryDx=0;entryDy=5;" parent="1" source="9QPMXsnIaiFJWs5hB8Ml-169" target="9QPMXsnIaiFJWs5hB8Ml-171" edge="1">
          <mxGeometry x="0.0025" relative="1" as="geometry">
            <mxPoint x="791" y="3805" as="sourcePoint" />
            <mxPoint as="offset" />
          </mxGeometry>
        </mxCell>
        <mxCell id="9QPMXsnIaiFJWs5hB8Ml-175" value="exec" style="html=1;verticalAlign=bottom;startArrow=oval;endArrow=block;startSize=8;curved=0;rounded=0;entryX=0;entryY=0;entryDx=0;entryDy=5;" parent="1" source="9QPMXsnIaiFJWs5hB8Ml-169" target="9QPMXsnIaiFJWs5hB8Ml-174" edge="1">
          <mxGeometry x="0.0025" relative="1" as="geometry">
            <mxPoint x="791" y="4058" as="sourcePoint" />
            <mxPoint as="offset" />
          </mxGeometry>
        </mxCell>
        <mxCell id="9QPMXsnIaiFJWs5hB8Ml-177" value="YYCefChannelApp::instance()" style="shape=umlLifeline;perimeter=lifelinePerimeter;whiteSpace=wrap;html=1;container=1;dropTarget=0;collapsible=0;recursiveResize=0;outlineConnect=0;portConstraint=eastwest;newEdgeStyle={&quot;curved&quot;:0,&quot;rounded&quot;:0};size=40;" parent="1" vertex="1">
          <mxGeometry x="1081" y="3740" width="170" height="1220" as="geometry" />
        </mxCell>
        <mxCell id="9QPMXsnIaiFJWs5hB8Ml-180" value="" style="html=1;points=[[0,0,0,0,5],[0,1,0,0,-5],[1,0,0,0,5],[1,1,0,0,-5]];perimeter=orthogonalPerimeter;outlineConnect=0;targetShapes=umlLifeline;portConstraint=eastwest;newEdgeStyle={&quot;curved&quot;:0,&quot;rounded&quot;:0};" parent="9QPMXsnIaiFJWs5hB8Ml-177" vertex="1">
          <mxGeometry x="80" y="770" width="10" height="180" as="geometry" />
        </mxCell>
        <mxCell id="9QPMXsnIaiFJWs5hB8Ml-188" value="" style="html=1;points=[[0,0,0,0,5],[0,1,0,0,-5],[1,0,0,0,5],[1,1,0,0,-5]];perimeter=orthogonalPerimeter;outlineConnect=0;targetShapes=umlLifeline;portConstraint=eastwest;newEdgeStyle={&quot;curved&quot;:0,&quot;rounded&quot;:0};" parent="9QPMXsnIaiFJWs5hB8Ml-177" vertex="1">
          <mxGeometry x="80" y="400" width="10" height="320" as="geometry" />
        </mxCell>
        <mxCell id="9QPMXsnIaiFJWs5hB8Ml-255" value="" style="html=1;points=[[0,0,0,0,5],[0,1,0,0,-5],[1,0,0,0,5],[1,1,0,0,-5]];perimeter=orthogonalPerimeter;outlineConnect=0;targetShapes=umlLifeline;portConstraint=eastwest;newEdgeStyle={&quot;curved&quot;:0,&quot;rounded&quot;:0};" parent="9QPMXsnIaiFJWs5hB8Ml-177" vertex="1">
          <mxGeometry x="85" y="640" width="10" height="40" as="geometry" />
        </mxCell>
        <mxCell id="9QPMXsnIaiFJWs5hB8Ml-256" value="self call" style="html=1;align=left;spacingLeft=2;endArrow=block;rounded=0;edgeStyle=orthogonalEdgeStyle;curved=0;rounded=0;" parent="9QPMXsnIaiFJWs5hB8Ml-177" target="9QPMXsnIaiFJWs5hB8Ml-255" edge="1">
          <mxGeometry relative="1" as="geometry">
            <mxPoint x="90" y="620" as="sourcePoint" />
            <Array as="points">
              <mxPoint x="120" y="650" />
            </Array>
          </mxGeometry>
        </mxCell>
        <mxCell id="9QPMXsnIaiFJWs5hB8Ml-181" value="exec" style="html=1;verticalAlign=bottom;startArrow=oval;endArrow=block;startSize=8;curved=0;rounded=0;entryX=0;entryY=0;entryDx=0;entryDy=5;" parent="1" source="9QPMXsnIaiFJWs5hB8Ml-174" target="9QPMXsnIaiFJWs5hB8Ml-180" edge="1">
          <mxGeometry x="0.0025" relative="1" as="geometry">
            <mxPoint x="1221" y="4058" as="sourcePoint" />
            <mxPoint as="offset" />
          </mxGeometry>
        </mxCell>
        <mxCell id="9QPMXsnIaiFJWs5hB8Ml-182" value="YYCefCoreApp::instance()" style="shape=umlLifeline;perimeter=lifelinePerimeter;whiteSpace=wrap;html=1;container=1;dropTarget=0;collapsible=0;recursiveResize=0;outlineConnect=0;portConstraint=eastwest;newEdgeStyle={&quot;curved&quot;:0,&quot;rounded&quot;:0};size=40;" parent="1" vertex="1">
          <mxGeometry x="1671" y="3740" width="170" height="950" as="geometry" />
        </mxCell>
        <mxCell id="9QPMXsnIaiFJWs5hB8Ml-200" value="" style="html=1;points=[[0,0,0,0,5],[0,1,0,0,-5],[1,0,0,0,5],[1,1,0,0,-5]];perimeter=orthogonalPerimeter;outlineConnect=0;targetShapes=umlLifeline;portConstraint=eastwest;newEdgeStyle={&quot;curved&quot;:0,&quot;rounded&quot;:0};" parent="9QPMXsnIaiFJWs5hB8Ml-182" vertex="1">
          <mxGeometry x="80" y="430" width="10" height="220" as="geometry" />
        </mxCell>
        <mxCell id="9QPMXsnIaiFJWs5hB8Ml-203" value="" style="html=1;points=[[0,0,0,0,5],[0,1,0,0,-5],[1,0,0,0,5],[1,1,0,0,-5]];perimeter=orthogonalPerimeter;outlineConnect=0;targetShapes=umlLifeline;portConstraint=eastwest;newEdgeStyle={&quot;curved&quot;:0,&quot;rounded&quot;:0};" parent="9QPMXsnIaiFJWs5hB8Ml-182" vertex="1">
          <mxGeometry x="85" y="500" width="10" height="130" as="geometry" />
        </mxCell>
        <mxCell id="9QPMXsnIaiFJWs5hB8Ml-204" value="_initCefEnv" style="html=1;align=left;spacingLeft=2;endArrow=block;rounded=0;edgeStyle=orthogonalEdgeStyle;curved=0;rounded=0;" parent="9QPMXsnIaiFJWs5hB8Ml-182" target="9QPMXsnIaiFJWs5hB8Ml-203" edge="1">
          <mxGeometry relative="1" as="geometry">
            <mxPoint x="90" y="480" as="sourcePoint" />
            <Array as="points">
              <mxPoint x="120" y="510" />
            </Array>
          </mxGeometry>
        </mxCell>
        <mxCell id="9QPMXsnIaiFJWs5hB8Ml-237" value="" style="html=1;points=[[0,0,0,0,5],[0,1,0,0,-5],[1,0,0,0,5],[1,1,0,0,-5]];perimeter=orthogonalPerimeter;outlineConnect=0;targetShapes=umlLifeline;portConstraint=eastwest;newEdgeStyle={&quot;curved&quot;:0,&quot;rounded&quot;:0};" parent="9QPMXsnIaiFJWs5hB8Ml-182" vertex="1">
          <mxGeometry x="80" y="770" width="10" height="180" as="geometry" />
        </mxCell>
        <mxCell id="9QPMXsnIaiFJWs5hB8Ml-189" value="initCef" style="html=1;verticalAlign=bottom;startArrow=oval;endArrow=block;startSize=8;curved=0;rounded=0;entryX=0;entryY=0;entryDx=0;entryDy=5;exitX=1;exitY=1;exitDx=0;exitDy=-5;exitPerimeter=0;" parent="1" source="9QPMXsnIaiFJWs5hB8Ml-186" target="9QPMXsnIaiFJWs5hB8Ml-188" edge="1">
          <mxGeometry relative="1" as="geometry">
            <mxPoint x="891" y="4188" as="sourcePoint" />
            <mxPoint as="offset" />
          </mxGeometry>
        </mxCell>
        <mxCell id="9QPMXsnIaiFJWs5hB8Ml-190" value="&lt;span style=&quot;color: rgb(0, 0, 0); font-family: 默认字体; font-size: 14px; text-wrap-mode: nowrap;&quot;&gt;YYCefBrowserCreator&lt;/span&gt;" style="swimlane;fontStyle=1;align=center;verticalAlign=top;childLayout=stackLayout;horizontal=1;startSize=26;horizontalStack=0;resizeParent=1;resizeParentMax=0;resizeLast=0;collapsible=1;marginBottom=0;whiteSpace=wrap;html=1;fillColor=#1ba1e2;fontColor=#ffffff;strokeColor=#006EAF;" parent="1" vertex="1">
          <mxGeometry x="1080" y="2480" width="510" height="220" as="geometry" />
        </mxCell>
        <mxCell id="9QPMXsnIaiFJWs5hB8Ml-191" value="+ field: type" style="text;strokeColor=none;fillColor=none;align=left;verticalAlign=top;spacingLeft=4;spacingRight=4;overflow=hidden;rotatable=0;points=[[0,0.5],[1,0.5]];portConstraint=eastwest;whiteSpace=wrap;html=1;" parent="9QPMXsnIaiFJWs5hB8Ml-190" vertex="1">
          <mxGeometry y="26" width="510" height="26" as="geometry" />
        </mxCell>
        <mxCell id="9QPMXsnIaiFJWs5hB8Ml-192" value="" style="line;strokeWidth=1;fillColor=none;align=left;verticalAlign=middle;spacingTop=-1;spacingLeft=3;spacingRight=3;rotatable=0;labelPosition=right;points=[];portConstraint=eastwest;strokeColor=inherit;" parent="9QPMXsnIaiFJWs5hB8Ml-190" vertex="1">
          <mxGeometry y="52" width="510" height="8" as="geometry" />
        </mxCell>
        <mxCell id="9QPMXsnIaiFJWs5hB8Ml-193" value="&lt;font face=&quot;默认字体&quot; color=&quot;#ededed&quot;&gt;&lt;span style=&quot;font-size: 14px; background-color: rgb(22, 23, 24);&quot;&gt;+&lt;/span&gt;&lt;/font&gt;" style="text;strokeColor=none;fillColor=none;align=left;verticalAlign=top;spacingLeft=4;spacingRight=4;overflow=hidden;rotatable=0;points=[[0,0.5],[1,0.5]];portConstraint=eastwest;whiteSpace=wrap;html=1;" parent="9QPMXsnIaiFJWs5hB8Ml-190" vertex="1">
          <mxGeometry y="60" width="510" height="160" as="geometry" />
        </mxCell>
        <mxCell id="9QPMXsnIaiFJWs5hB8Ml-194" style="edgeStyle=orthogonalEdgeStyle;rounded=0;orthogonalLoop=1;jettySize=auto;html=1;exitX=0;exitY=0.25;exitDx=0;exitDy=0;entryX=1;entryY=0.5;entryDx=0;entryDy=0;" parent="1" source="9QPMXsnIaiFJWs5hB8Ml-144" target="9QPMXsnIaiFJWs5hB8Ml-193" edge="1">
          <mxGeometry relative="1" as="geometry" />
        </mxCell>
        <mxCell id="9QPMXsnIaiFJWs5hB8Ml-195" value="m_yycefBrowserCreator" style="shape=umlLifeline;perimeter=lifelinePerimeter;whiteSpace=wrap;html=1;container=1;dropTarget=0;collapsible=0;recursiveResize=0;outlineConnect=0;portConstraint=eastwest;newEdgeStyle={&quot;curved&quot;:0,&quot;rounded&quot;:0};size=40;" parent="1" vertex="1">
          <mxGeometry x="1371" y="3740" width="170" height="847" as="geometry" />
        </mxCell>
        <mxCell id="9QPMXsnIaiFJWs5hB8Ml-198" value="" style="html=1;points=[[0,0,0,0,5],[0,1,0,0,-5],[1,0,0,0,5],[1,1,0,0,-5]];perimeter=orthogonalPerimeter;outlineConnect=0;targetShapes=umlLifeline;portConstraint=eastwest;newEdgeStyle={&quot;curved&quot;:0,&quot;rounded&quot;:0};" parent="9QPMXsnIaiFJWs5hB8Ml-195" vertex="1">
          <mxGeometry x="80" y="400" width="10" height="250" as="geometry" />
        </mxCell>
        <mxCell id="9QPMXsnIaiFJWs5hB8Ml-228" value="" style="html=1;points=[[0,0,0,0,5],[0,1,0,0,-5],[1,0,0,0,5],[1,1,0,0,-5]];perimeter=orthogonalPerimeter;outlineConnect=0;targetShapes=umlLifeline;portConstraint=eastwest;newEdgeStyle={&quot;curved&quot;:0,&quot;rounded&quot;:0};" parent="9QPMXsnIaiFJWs5hB8Ml-195" vertex="1">
          <mxGeometry x="80" y="670" width="10" height="50" as="geometry" />
        </mxCell>
        <mxCell id="9QPMXsnIaiFJWs5hB8Ml-199" value="initCef" style="html=1;verticalAlign=bottom;startArrow=oval;endArrow=block;startSize=8;curved=0;rounded=0;entryX=0;entryY=0;entryDx=0;entryDy=5;exitX=1;exitY=0;exitDx=0;exitDy=5;exitPerimeter=0;" parent="1" source="9QPMXsnIaiFJWs5hB8Ml-188" target="9QPMXsnIaiFJWs5hB8Ml-198" edge="1">
          <mxGeometry relative="1" as="geometry">
            <mxPoint x="1471" y="4195" as="sourcePoint" />
          </mxGeometry>
        </mxCell>
        <mxCell id="9QPMXsnIaiFJWs5hB8Ml-201" value="init" style="html=1;verticalAlign=bottom;startArrow=oval;endArrow=block;startSize=8;curved=0;rounded=0;entryX=0;entryY=0;entryDx=0;entryDy=5;" parent="1" source="9QPMXsnIaiFJWs5hB8Ml-198" target="9QPMXsnIaiFJWs5hB8Ml-200" edge="1">
          <mxGeometry x="-0.0016" relative="1" as="geometry">
            <mxPoint x="1751" y="4155" as="sourcePoint" />
            <mxPoint as="offset" />
          </mxGeometry>
        </mxCell>
        <mxCell id="9QPMXsnIaiFJWs5hB8Ml-202" style="edgeStyle=orthogonalEdgeStyle;rounded=0;orthogonalLoop=1;jettySize=auto;html=1;curved=0;exitX=0;exitY=1;exitDx=0;exitDy=-5;exitPerimeter=0;entryX=1;entryY=1;entryDx=0;entryDy=-5;entryPerimeter=0;dashed=1;" parent="1" source="9QPMXsnIaiFJWs5hB8Ml-200" target="9QPMXsnIaiFJWs5hB8Ml-198" edge="1">
          <mxGeometry relative="1" as="geometry" />
        </mxCell>
        <mxCell id="9QPMXsnIaiFJWs5hB8Ml-205" value="m_cefApp:CefApp" style="shape=umlLifeline;perimeter=lifelinePerimeter;whiteSpace=wrap;html=1;container=1;dropTarget=0;collapsible=0;recursiveResize=0;outlineConnect=0;portConstraint=eastwest;newEdgeStyle={&quot;curved&quot;:0,&quot;rounded&quot;:0};" parent="1" vertex="1">
          <mxGeometry x="1986" y="4170" width="100" height="530" as="geometry" />
        </mxCell>
        <mxCell id="9QPMXsnIaiFJWs5hB8Ml-208" value="new" style="html=1;verticalAlign=bottom;startArrow=oval;startFill=1;endArrow=block;startSize=8;curved=0;rounded=0;" parent="1" target="9QPMXsnIaiFJWs5hB8Ml-205" edge="1">
          <mxGeometry width="60" relative="1" as="geometry">
            <mxPoint x="1771" y="4270" as="sourcePoint" />
            <mxPoint x="1831" y="4270" as="targetPoint" />
          </mxGeometry>
        </mxCell>
        <mxCell id="9QPMXsnIaiFJWs5hB8Ml-210" style="edgeStyle=orthogonalEdgeStyle;rounded=0;orthogonalLoop=1;jettySize=auto;html=1;curved=0;exitX=0;exitY=1;exitDx=0;exitDy=-5;exitPerimeter=0;dashed=1;" parent="1" source="9QPMXsnIaiFJWs5hB8Ml-198" target="9QPMXsnIaiFJWs5hB8Ml-188" edge="1">
          <mxGeometry relative="1" as="geometry" />
        </mxCell>
        <mxCell id="9QPMXsnIaiFJWs5hB8Ml-211" style="edgeStyle=orthogonalEdgeStyle;rounded=0;orthogonalLoop=1;jettySize=auto;html=1;curved=0;exitX=0;exitY=1;exitDx=0;exitDy=-5;exitPerimeter=0;entryX=1;entryY=1;entryDx=0;entryDy=-5;entryPerimeter=0;dashed=1;" parent="1" source="9QPMXsnIaiFJWs5hB8Ml-188" target="9QPMXsnIaiFJWs5hB8Ml-171" edge="1">
          <mxGeometry relative="1" as="geometry" />
        </mxCell>
        <mxCell id="9QPMXsnIaiFJWs5hB8Ml-214" value="CefExecuteProcess(CefMainArgs&amp;amp;,&amp;nbsp;CefApp*)" style="html=1;verticalAlign=bottom;endArrow=block;curved=0;rounded=0;entryX=0;entryY=0;entryDx=0;entryDy=5;fillColor=#60a917;strokeColor=#2D7600;" parent="1" source="9QPMXsnIaiFJWs5hB8Ml-203" target="9QPMXsnIaiFJWs5hB8Ml-213" edge="1">
          <mxGeometry relative="1" as="geometry">
            <mxPoint x="2121" y="4305" as="sourcePoint" />
            <mxPoint as="offset" />
          </mxGeometry>
        </mxCell>
        <mxCell id="9QPMXsnIaiFJWs5hB8Ml-215" value="return" style="html=1;verticalAlign=bottom;endArrow=open;dashed=1;endSize=8;curved=0;rounded=0;exitX=0;exitY=1;exitDx=0;exitDy=-5;" parent="1" source="9QPMXsnIaiFJWs5hB8Ml-213" target="9QPMXsnIaiFJWs5hB8Ml-203" edge="1">
          <mxGeometry relative="1" as="geometry">
            <mxPoint x="2121" y="4375" as="targetPoint" />
          </mxGeometry>
        </mxCell>
        <mxCell id="9QPMXsnIaiFJWs5hB8Ml-222" value="CefInitialize(CefMainArgs&amp;amp;,&amp;nbsp;CefSettings&amp;amp;,&amp;nbsp;CefApp*)" style="html=1;verticalAlign=bottom;startArrow=oval;endArrow=block;startSize=8;curved=0;rounded=0;entryX=0;entryY=0;entryDx=0;entryDy=5;fillColor=#60a917;strokeColor=#2D7600;" parent="1" source="9QPMXsnIaiFJWs5hB8Ml-203" target="9QPMXsnIaiFJWs5hB8Ml-221" edge="1">
          <mxGeometry relative="1" as="geometry">
            <mxPoint x="2121" y="4355" as="sourcePoint" />
            <mxPoint as="offset" />
          </mxGeometry>
        </mxCell>
        <mxCell id="9QPMXsnIaiFJWs5hB8Ml-224" value="lib-cef.dll" style="shape=umlLifeline;perimeter=lifelinePerimeter;whiteSpace=wrap;html=1;container=1;dropTarget=0;collapsible=0;recursiveResize=0;outlineConnect=0;portConstraint=eastwest;newEdgeStyle={&quot;curved&quot;:0,&quot;rounded&quot;:0};fillColor=#60a917;fontColor=#ffffff;strokeColor=#2D7600;" parent="1" vertex="1">
          <mxGeometry x="2161" y="4170" width="100" height="540" as="geometry" />
        </mxCell>
        <mxCell id="9QPMXsnIaiFJWs5hB8Ml-213" value="" style="html=1;points=[[0,0,0,0,5],[0,1,0,0,-5],[1,0,0,0,5],[1,1,0,0,-5]];perimeter=orthogonalPerimeter;outlineConnect=0;targetShapes=umlLifeline;portConstraint=eastwest;newEdgeStyle={&quot;curved&quot;:0,&quot;rounded&quot;:0};fillColor=#60a917;fontColor=#ffffff;strokeColor=#2D7600;" parent="9QPMXsnIaiFJWs5hB8Ml-224" vertex="1">
          <mxGeometry x="45" y="130" width="10" height="30" as="geometry" />
        </mxCell>
        <mxCell id="9QPMXsnIaiFJWs5hB8Ml-221" value="" style="html=1;points=[[0,0,0,0,5],[0,1,0,0,-5],[1,0,0,0,5],[1,1,0,0,-5]];perimeter=orthogonalPerimeter;outlineConnect=0;targetShapes=umlLifeline;portConstraint=eastwest;newEdgeStyle={&quot;curved&quot;:0,&quot;rounded&quot;:0};fillColor=#60a917;fontColor=#ffffff;strokeColor=#2D7600;" parent="9QPMXsnIaiFJWs5hB8Ml-224" vertex="1">
          <mxGeometry x="45" y="180" width="10" height="20" as="geometry" />
        </mxCell>
        <mxCell id="9QPMXsnIaiFJWs5hB8Ml-243" value="" style="html=1;points=[[0,0,0,0,5],[0,1,0,0,-5],[1,0,0,0,5],[1,1,0,0,-5]];perimeter=orthogonalPerimeter;outlineConnect=0;targetShapes=umlLifeline;portConstraint=eastwest;newEdgeStyle={&quot;curved&quot;:0,&quot;rounded&quot;:0};" parent="9QPMXsnIaiFJWs5hB8Ml-224" vertex="1">
          <mxGeometry x="45" y="380" width="10" height="80" as="geometry" />
        </mxCell>
        <mxCell id="9QPMXsnIaiFJWs5hB8Ml-229" value="useQtMsgLoop" style="html=1;verticalAlign=bottom;startArrow=oval;endArrow=block;startSize=8;curved=0;rounded=0;entryX=0;entryY=0;entryDx=0;entryDy=5;exitX=1;exitY=0.5;exitDx=0;exitDy=0;" parent="1" source="9QPMXsnIaiFJWs5hB8Ml-248" target="9QPMXsnIaiFJWs5hB8Ml-228" edge="1">
          <mxGeometry x="0.0049" relative="1" as="geometry">
            <mxPoint x="1321" y="4420" as="sourcePoint" />
            <mxPoint as="offset" />
          </mxGeometry>
        </mxCell>
        <mxCell id="9QPMXsnIaiFJWs5hB8Ml-238" value="exec" style="html=1;verticalAlign=bottom;endArrow=block;curved=0;rounded=0;entryX=0;entryY=0;entryDx=0;entryDy=5;exitX=1;exitY=0;exitDx=0;exitDy=5;exitPerimeter=0;" parent="1" source="9QPMXsnIaiFJWs5hB8Ml-180" target="9QPMXsnIaiFJWs5hB8Ml-237" edge="1">
          <mxGeometry x="0.002" relative="1" as="geometry">
            <mxPoint x="1682" y="4495" as="sourcePoint" />
            <mxPoint as="offset" />
          </mxGeometry>
        </mxCell>
        <mxCell id="9QPMXsnIaiFJWs5hB8Ml-239" value="return" style="html=1;verticalAlign=bottom;endArrow=open;dashed=1;endSize=8;curved=0;rounded=0;exitX=0;exitY=1;exitDx=0;exitDy=-5;" parent="1" source="9QPMXsnIaiFJWs5hB8Ml-237" target="9QPMXsnIaiFJWs5hB8Ml-180" edge="1">
          <mxGeometry relative="1" as="geometry">
            <mxPoint x="1682" y="4565" as="targetPoint" />
          </mxGeometry>
        </mxCell>
        <mxCell id="9QPMXsnIaiFJWs5hB8Ml-240" value="qt" style="shape=umlLifeline;perimeter=lifelinePerimeter;whiteSpace=wrap;html=1;container=1;dropTarget=0;collapsible=0;recursiveResize=0;outlineConnect=0;portConstraint=eastwest;newEdgeStyle={&quot;curved&quot;:0,&quot;rounded&quot;:0};fillColor=#60a917;fontColor=#ffffff;strokeColor=#2D7600;" parent="1" vertex="1">
          <mxGeometry x="2381" y="4170" width="100" height="540" as="geometry" />
        </mxCell>
        <mxCell id="9QPMXsnIaiFJWs5hB8Ml-251" value="" style="html=1;points=[[0,0,0,0,5],[0,1,0,0,-5],[1,0,0,0,5],[1,1,0,0,-5]];perimeter=orthogonalPerimeter;outlineConnect=0;targetShapes=umlLifeline;portConstraint=eastwest;newEdgeStyle={&quot;curved&quot;:0,&quot;rounded&quot;:0};" parent="9QPMXsnIaiFJWs5hB8Ml-240" vertex="1">
          <mxGeometry x="45" y="310" width="10" height="105" as="geometry" />
        </mxCell>
        <mxCell id="9QPMXsnIaiFJWs5hB8Ml-244" value="CefRunMessageLoop" style="html=1;verticalAlign=bottom;startArrow=oval;endArrow=block;startSize=8;curved=0;rounded=0;entryX=0;entryY=0;entryDx=0;entryDy=5;exitX=0.5;exitY=1;exitDx=0;exitDy=0;entryPerimeter=0;" parent="1" source="9QPMXsnIaiFJWs5hB8Ml-245" target="9QPMXsnIaiFJWs5hB8Ml-243" edge="1">
          <mxGeometry x="0.0012" relative="1" as="geometry">
            <mxPoint x="1841.0003448275866" y="4587" as="sourcePoint" />
            <mxPoint x="2292.19" y="4587" as="targetPoint" />
            <mxPoint as="offset" />
          </mxGeometry>
        </mxCell>
        <mxCell id="9QPMXsnIaiFJWs5hB8Ml-245" value="" style="rhombus;whiteSpace=wrap;html=1;" parent="1" vertex="1">
          <mxGeometry x="1851" y="4480" width="60" height="70" as="geometry" />
        </mxCell>
        <mxCell id="9QPMXsnIaiFJWs5hB8Ml-247" style="edgeStyle=orthogonalEdgeStyle;rounded=0;orthogonalLoop=1;jettySize=auto;html=1;curved=0;exitX=1;exitY=0;exitDx=0;exitDy=5;exitPerimeter=0;" parent="1" source="9QPMXsnIaiFJWs5hB8Ml-237" target="9QPMXsnIaiFJWs5hB8Ml-245" edge="1">
          <mxGeometry relative="1" as="geometry" />
        </mxCell>
        <mxCell id="9QPMXsnIaiFJWs5hB8Ml-230" value="isBrowser()" style="text;html=1;align=center;verticalAlign=middle;resizable=0;points=[];autosize=1;strokeColor=none;fillColor=none;" parent="1" vertex="1">
          <mxGeometry x="1231.5" y="4430" width="80" height="30" as="geometry" />
        </mxCell>
        <mxCell id="9QPMXsnIaiFJWs5hB8Ml-248" value="" style="rhombus;whiteSpace=wrap;html=1;" parent="1" vertex="1">
          <mxGeometry x="1232" y="4400" width="30" height="30" as="geometry" />
        </mxCell>
        <mxCell id="9QPMXsnIaiFJWs5hB8Ml-249" style="edgeStyle=orthogonalEdgeStyle;rounded=0;orthogonalLoop=1;jettySize=auto;html=1;curved=0;entryX=0;entryY=0.5;entryDx=0;entryDy=0;exitX=1;exitY=1;exitDx=0;exitDy=-5;exitPerimeter=0;" parent="1" source="9QPMXsnIaiFJWs5hB8Ml-255" target="9QPMXsnIaiFJWs5hB8Ml-248" edge="1">
          <mxGeometry relative="1" as="geometry">
            <mxPoint x="1821" y="4550" as="sourcePoint" />
            <mxPoint x="1921" y="4550" as="targetPoint" />
          </mxGeometry>
        </mxCell>
        <mxCell id="9QPMXsnIaiFJWs5hB8Ml-250" value="isBrowser()" style="text;html=1;align=center;verticalAlign=middle;resizable=0;points=[];autosize=1;strokeColor=none;fillColor=none;" parent="1" vertex="1">
          <mxGeometry x="1911" y="4510" width="80" height="30" as="geometry" />
        </mxCell>
        <mxCell id="9QPMXsnIaiFJWs5hB8Ml-252" value="exec" style="html=1;verticalAlign=bottom;startArrow=oval;endArrow=block;startSize=8;curved=0;rounded=0;entryX=0;entryY=0;entryDx=0;entryDy=5;exitX=0.5;exitY=0;exitDx=0;exitDy=0;" parent="1" source="9QPMXsnIaiFJWs5hB8Ml-245" target="9QPMXsnIaiFJWs5hB8Ml-251" edge="1">
          <mxGeometry relative="1" as="geometry">
            <mxPoint x="2356" y="4495" as="sourcePoint" />
          </mxGeometry>
        </mxCell>
        <mxCell id="9QPMXsnIaiFJWs5hB8Ml-257" value="mainframe" style="rounded=0;whiteSpace=wrap;html=1;" parent="1" vertex="1">
          <mxGeometry x="461" y="3640" width="500" height="60" as="geometry" />
        </mxCell>
        <mxCell id="9QPMXsnIaiFJWs5hB8Ml-258" value="launcher" style="rounded=0;whiteSpace=wrap;html=1;" parent="1" vertex="1">
          <mxGeometry x="460" y="2950" width="990" height="50" as="geometry" />
        </mxCell>
        <mxCell id="9QPMXsnIaiFJWs5hB8Ml-261" value="" style="edgeStyle=orthogonalEdgeStyle;rounded=0;orthogonalLoop=1;jettySize=auto;html=1;" parent="1" source="9QPMXsnIaiFJWs5hB8Ml-259" target="9QPMXsnIaiFJWs5hB8Ml-260" edge="1">
          <mxGeometry relative="1" as="geometry" />
        </mxCell>
        <mxCell id="9QPMXsnIaiFJWs5hB8Ml-259" value="wWinMain" style="rounded=1;whiteSpace=wrap;html=1;" parent="1" vertex="1">
          <mxGeometry x="462" y="3060" width="120" height="60" as="geometry" />
        </mxCell>
        <mxCell id="9QPMXsnIaiFJWs5hB8Ml-263" value="" style="edgeStyle=orthogonalEdgeStyle;rounded=0;orthogonalLoop=1;jettySize=auto;html=1;" parent="1" source="9QPMXsnIaiFJWs5hB8Ml-260" target="9QPMXsnIaiFJWs5hB8Ml-262" edge="1">
          <mxGeometry relative="1" as="geometry" />
        </mxCell>
        <mxCell id="9QPMXsnIaiFJWs5hB8Ml-260" value="run" style="rounded=1;whiteSpace=wrap;html=1;" parent="1" vertex="1">
          <mxGeometry x="662" y="3060" width="120" height="60" as="geometry" />
        </mxCell>
        <mxCell id="9QPMXsnIaiFJWs5hB8Ml-269" style="edgeStyle=orthogonalEdgeStyle;rounded=0;orthogonalLoop=1;jettySize=auto;html=1;exitX=1;exitY=0.5;exitDx=0;exitDy=0;entryX=0;entryY=0.5;entryDx=0;entryDy=0;" parent="1" source="9QPMXsnIaiFJWs5hB8Ml-262" target="9QPMXsnIaiFJWs5hB8Ml-264" edge="1">
          <mxGeometry relative="1" as="geometry" />
        </mxCell>
        <mxCell id="9QPMXsnIaiFJWs5hB8Ml-262" value="loadMainframe" style="rounded=1;whiteSpace=wrap;html=1;" parent="1" vertex="1">
          <mxGeometry x="862" y="3060" width="120" height="60" as="geometry" />
        </mxCell>
        <mxCell id="9QPMXsnIaiFJWs5hB8Ml-264" value="isBrowser" style="rhombus;whiteSpace=wrap;html=1;fontColor=#000000;fillColor=#ffffc0;strokeColor=#ff0000;" parent="1" vertex="1">
          <mxGeometry x="1090" y="3070" width="80" height="40" as="geometry" />
        </mxCell>
        <mxCell id="9QPMXsnIaiFJWs5hB8Ml-265" value="no" style="edgeStyle=orthogonalEdgeStyle;html=1;align=left;verticalAlign=bottom;endArrow=open;endSize=8;strokeColor=#ff0000;rounded=0;entryX=0;entryY=0.5;entryDx=0;entryDy=0;" parent="1" source="9QPMXsnIaiFJWs5hB8Ml-264" target="9QPMXsnIaiFJWs5hB8Ml-271" edge="1">
          <mxGeometry x="-1" relative="1" as="geometry">
            <mxPoint x="1270" y="3090" as="targetPoint" />
          </mxGeometry>
        </mxCell>
        <mxCell id="9QPMXsnIaiFJWs5hB8Ml-266" value="yes" style="edgeStyle=orthogonalEdgeStyle;html=1;align=left;verticalAlign=top;endArrow=open;endSize=8;strokeColor=#ff0000;rounded=0;entryX=0.5;entryY=0;entryDx=0;entryDy=0;" parent="1" source="9QPMXsnIaiFJWs5hB8Ml-264" target="9QPMXsnIaiFJWs5hB8Ml-270" edge="1">
          <mxGeometry x="-1" relative="1" as="geometry">
            <mxPoint x="1130" y="3170" as="targetPoint" />
          </mxGeometry>
        </mxCell>
        <mxCell id="9QPMXsnIaiFJWs5hB8Ml-268" value="cmd.find(L&quot;--type=&quot;) == std::wstring::npos" style="text;html=1;align=center;verticalAlign=middle;resizable=0;points=[];autosize=1;strokeColor=none;fillColor=none;" parent="1" vertex="1">
          <mxGeometry x="1030" y="3030" width="240" height="30" as="geometry" />
        </mxCell>
        <mxCell id="9QPMXsnIaiFJWs5hB8Ml-270" value="mainframe.dll" style="rounded=1;whiteSpace=wrap;html=1;" parent="1" vertex="1">
          <mxGeometry x="1070" y="3180" width="120" height="60" as="geometry" />
        </mxCell>
        <mxCell id="9QPMXsnIaiFJWs5hB8Ml-271" value="mainframe-unbrowser.dll" style="rounded=1;whiteSpace=wrap;html=1;" parent="1" vertex="1">
          <mxGeometry x="1275" y="3060" width="185" height="60" as="geometry" />
        </mxCell>
        <mxCell id="9QPMXsnIaiFJWs5hB8Ml-272" value="mainframe-unbrowser.dll" style="rounded=1;whiteSpace=wrap;html=1;" parent="1" vertex="1">
          <mxGeometry x="520" y="5140" width="480" height="60" as="geometry" />
        </mxCell>
      </root>
    </mxGraphModel>
  </diagram>
</mxfile>
